<svg width="512" height="512" viewBox="0 0 512 512" fill="none" xmlns="http://www.w3.org/2000/svg">
<path d="M382.412 182.773C382.067 182.427 381.657 182.152 381.207 181.965C380.756 181.777 380.273 181.681 379.785 181.681C379.297 181.681 378.814 181.777 378.363 181.965C377.912 182.152 377.503 182.427 377.158 182.773L354.108 205.913C350.309 209.728 345.257 211.828 339.884 211.828C334.689 211.828 329.797 209.859 326.043 206.28C326.415 205.935 326.78 205.583 327.138 205.224C333.607 198.73 337.216 190.136 337.3 181.026C337.383 171.891 333.915 163.331 327.533 156.924C314.379 143.717 292.795 143.895 279.422 157.32C278.252 158.495 276.866 160.061 275.33 161.944C268.629 159.068 261.355 157.555 253.848 157.555H253.507C223.371 157.555 198.853 182.169 198.853 212.424C198.853 227.08 204.538 240.859 214.861 251.222C218.928 255.305 224.504 260.901 230.608 267.027L142.064 343.121L209.839 263.637C210.162 263.265 210.408 262.834 210.563 262.366C210.718 261.899 210.78 261.405 210.744 260.914C210.708 260.423 210.576 259.943 210.355 259.504C210.133 259.064 209.827 258.673 209.455 258.352C209.082 258.032 208.649 257.789 208.183 257.637C207.716 257.485 207.224 257.428 206.734 257.468C206.245 257.509 205.769 257.646 205.333 257.872C204.897 258.098 204.51 258.409 204.194 258.786L130.153 345.618C127.823 348.351 127.971 352.181 130.505 354.725C133.046 357.276 136.862 357.411 139.576 355.078L235.879 272.317C249.73 286.215 264.787 301.322 270.77 307.324C264.553 313.567 250.773 328.626 250.773 339.473C250.773 353.475 262.119 364.866 276.066 364.866C290.013 364.866 301.36 353.475 301.36 339.473C301.36 328.625 287.579 313.565 281.362 307.323L285.425 303.243C290.407 298.242 293.151 291.592 293.151 284.518C293.151 277.445 290.408 270.795 285.425 265.793L280.713 261.062C280.013 260.379 279.073 260 278.097 260.007C277.12 260.013 276.186 260.406 275.495 261.099C274.805 261.792 274.414 262.73 274.407 263.71C274.4 264.691 274.778 265.634 275.459 266.337L280.171 271.068C283.75 274.661 285.721 279.438 285.721 284.518C285.721 289.599 283.75 294.376 280.171 297.969L276.065 302.091C267.173 293.17 237.875 263.776 222.704 248.549L240.863 227.252C248.235 218.608 254.794 208.935 260.361 198.502C265.76 188.382 272.148 178.505 277.452 171.342C281.028 173.423 284.319 175.964 287.24 178.901L299.608 191.317L296.284 194.654C294.539 196.406 291.698 196.407 289.952 194.655C289.826 194.529 289.708 194.396 289.598 194.256C288.987 193.48 288.094 192.98 287.115 192.865C286.137 192.751 285.153 193.031 284.38 193.644C282.242 195.306 282.745 198.336 284.697 199.928C287.018 202.259 290.068 203.424 293.118 203.424C296.167 203.424 299.217 202.259 301.538 199.928L313.187 188.234C317.83 183.573 317.83 175.988 313.187 171.327C308.544 166.666 300.989 166.666 296.346 171.327L293.275 174.41L292.495 173.626C289.37 170.486 285.88 167.735 282.1 165.433C283.045 164.32 283.912 163.362 284.676 162.595C295.153 152.078 312.021 151.9 322.28 162.199C327.24 167.178 329.936 173.841 329.87 180.958C329.805 188.101 326.969 194.846 321.885 199.95C316.424 205.432 301.553 216.061 286.118 224.36C275.725 229.948 266.09 236.534 257.48 243.933L245.938 253.852C245.199 254.499 244.745 255.411 244.673 256.392C244.602 257.373 244.919 258.342 245.556 259.09C246.194 259.837 247.099 260.301 248.075 260.381C249.051 260.462 250.02 260.152 250.77 259.519L262.312 249.6C270.516 242.55 279.705 236.271 289.626 230.936C301.639 224.477 312.848 216.962 320.324 211.105L320.407 211.188C325.609 216.411 332.527 219.288 339.885 219.288C347.242 219.288 354.16 216.412 359.363 211.188L382.412 188.048C383.109 187.349 383.5 186.4 383.5 185.411C383.5 184.421 383.109 183.473 382.412 182.773ZM301.599 176.602C303.345 174.849 306.186 174.849 307.932 176.602C309.679 178.355 309.679 181.207 307.932 182.96L304.862 186.043L298.528 179.685L301.599 176.602ZM276.066 357.407C266.217 357.407 258.202 349.362 258.202 339.473C258.202 332.718 268.298 320.337 276.067 312.548C283.836 320.33 293.93 332.707 293.93 339.473C293.93 349.362 285.916 357.407 276.066 357.407ZM253.811 194.98C248.497 204.94 242.242 214.166 235.219 222.401L217.534 243.142C210.254 234.576 206.282 223.807 206.282 212.424C206.282 186.283 227.467 165.015 253.507 165.015H253.847C259.671 165.015 265.333 166.068 270.619 168.081C265.339 175.325 259.206 184.867 253.811 194.98Z" fill="#A2A2A2"/>
</svg>
