<svg width="233" height="43" viewBox="0 0 233 43" fill="none" xmlns="http://www.w3.org/2000/svg">
<path d="M115.311 1.70898V41.0723H121.243V22.6207H124.879L135.951 39.8148L136.908 41.0723H143.442L130.894 22.2654C130.894 22.2654 131.796 21.9647 132.971 21.2813C132.971 21.2813 134.174 20.5979 135.322 19.4225C135.322 19.4225 136.471 18.247 137.236 16.5249C137.236 16.5249 138.002 14.7754 138.029 12.3972C138.029 12.3972 138.002 9.60897 136.881 7.58614C136.881 7.58614 135.787 5.5633 133.956 4.27853C133.956 4.27853 132.097 2.96642 129.855 2.3377C129.855 2.3377 127.64 1.70898 125.344 1.70898H115.311ZM121.243 4.66123H123.786C123.786 4.66123 125.891 4.66123 127.722 5.45396C127.722 5.45396 129.554 6.27403 130.702 7.96884C130.702 7.96884 131.85 9.69098 131.905 12.3972C131.905 12.3972 131.878 14.9394 130.839 16.7162C130.839 16.7162 129.773 18.493 127.968 19.3951C127.968 19.3951 126.164 20.3245 123.895 20.3245H121.243V4.66123Z" fill="black"/>
<path d="M150.469 1.70898V27.3498C150.469 27.3498 150.496 31.5868 152.273 34.8397C152.273 34.8397 154.077 38.0653 157.44 39.8968C157.44 39.8968 160.83 41.7283 165.587 41.783C165.587 41.783 170.508 41.7557 173.871 39.8968C173.871 39.8968 177.233 38.0653 178.956 34.8397C178.956 34.8397 180.678 31.6141 180.678 27.3498V1.70898H174.855V29.2086C174.855 29.2086 174.828 31.9148 173.679 33.965C173.679 33.965 172.558 36.0152 170.481 37.1906C170.481 37.1906 168.403 38.366 165.587 38.3934C165.587 38.3934 162.826 38.366 160.693 37.1906C160.693 37.1906 158.588 36.0152 157.413 33.965C157.413 33.965 156.21 31.9148 156.183 29.2086V1.70898H150.469Z" fill="black"/>
<path d="M199.732 5.20794V41.0723H205.829V5.20794H218.022V1.70898H187.539V5.20794H199.732Z" fill="black"/>
<path d="M225.541 1.70898V41.0723H231.556V1.70898H225.541Z" fill="black"/>
<path d="M1.44531 21.336C1.44531 21.336 1.47265 25.9558 3.11297 29.7007C3.11297 29.7007 4.78064 33.4184 7.70588 36.0973C7.70588 36.0973 10.6311 38.7762 14.5132 40.2249C14.5132 40.2249 18.368 41.6464 22.8515 41.6737H22.9882L27.6905 41.2637C27.6905 41.2637 29.9322 40.8537 31.7366 40.2523C31.7366 40.2523 33.5683 39.6782 34.6892 39.0495V32.981L33.1582 34.3205C33.1582 34.3205 32.1193 35.1405 30.6431 35.9879C30.6431 35.9879 29.1394 36.8353 27.2804 37.4367C27.2804 37.4367 25.4487 38.0381 23.3163 38.1201L22.7695 38.1474C22.7695 38.1474 18.2586 38.0928 14.896 35.9333C14.896 35.9333 11.506 33.7464 9.64693 29.9741C9.64693 29.9741 7.78789 26.1744 7.76055 21.2814C7.76055 21.2814 7.76055 16.525 9.40088 12.7253C9.40088 12.7253 11.0412 8.95302 14.2125 6.73883C14.2125 6.73883 17.3838 4.52465 22.004 4.49731H22.7422C22.7422 4.49731 24.9293 4.63399 26.8703 5.37205C26.8703 5.37205 28.8114 6.13745 30.397 7.14887L32.9942 9.06236L34.4705 10.3471V3.70458L32.256 2.82984C32.256 2.82984 30.5884 2.25579 28.1279 1.76375L22.6875 1.21704H22.5235C22.5235 1.21704 18.0946 1.21704 14.2672 2.63849C14.2672 2.63849 10.4671 4.03261 7.59652 6.65683C7.59652 6.65683 4.69862 9.28104 3.08564 12.9987C3.08564 12.9987 1.47265 16.689 1.44531 21.336Z" fill="black"/>
<path d="M68.8628 1.70898H44.9961V41.0723H69.5736V37.6006H51.0926V22.5934H64.68V19.4498H51.0926V5.0986H68.8628V1.70898Z" fill="black"/>
<path d="M79.0059 1.70898V41.0723H84.9384V22.6207H88.5744L99.4005 39.8148L100.33 41.0723H106.891L94.5889 22.2654C94.5889 22.2654 95.4911 21.9647 96.6667 21.2813C96.6667 21.2813 97.8696 20.5979 99.0178 19.4225C99.0178 19.4225 100.166 18.247 100.932 16.5249C100.932 16.5249 101.697 14.7754 101.724 12.3972C101.724 12.3972 101.697 9.60897 100.603 7.58614C100.603 7.58614 99.4826 5.5633 97.6509 4.27853C97.6509 4.27853 95.7918 2.96642 93.5774 2.3377C93.5774 2.3377 91.3356 1.70898 89.0392 1.70898H79.0059ZM84.9384 4.66123H87.4809C87.4809 4.66123 89.5859 4.66123 91.4176 5.45396C91.4176 5.45396 93.2493 6.27403 94.3976 7.96884C94.3976 7.96884 95.5731 9.69098 95.6005 12.3972C95.6005 12.3972 95.5731 14.9394 94.5342 16.7162C94.5342 16.7162 93.468 18.493 91.6637 19.3951C91.6637 19.3951 89.8593 20.3245 87.5902 20.3245H84.9384V4.66123Z" fill="black"/>
</svg>
