<svg width="410" height="70" viewBox="0 0 410 70" fill="none" xmlns="http://www.w3.org/2000/svg">
<path d="M72.6026 36.1746C72.6026 26.759 79.8408 19.4709 88.2864 19.4709C96.7321 19.4709 103.97 26.759 103.97 36.1746C103.97 45.5903 96.7321 52.8784 88.2864 52.8784C80.1426 52.8847 72.6026 45.5903 72.6026 36.1746ZM63.8551 36.1746C63.8551 50.4532 74.7155 61.3885 88.2927 61.3885C101.87 61.3885 112.73 50.4532 112.73 36.1746C112.73 21.896 101.87 10.9607 88.2927 10.9607C74.7155 10.9607 63.8551 21.896 63.8551 36.1746ZM132.936 19.7748H145.004C150.733 19.7748 153.449 23.1181 153.449 27.0629C153.449 31.0077 151.034 34.351 145.004 34.351H132.936V19.7748ZM125.094 60.7807H133.238V41.9494H143.192L152.242 60.7807H162.499L151.336 40.4297C157.065 38.6061 161.593 33.7495 161.593 27.0629C161.593 18.5591 155.562 11.8725 145.909 11.8725H125.094V60.7807ZM179.692 60.7807H187.835V31.318L198.998 43.1651L210.16 31.318V60.7807H218.304V10.3592L198.998 33.4455L179.692 10.3592V60.7807ZM237.918 60.4767H271.405V52.8847H246.062V38.6061H263.859V30.7101H246.062V19.1669H271.405V11.8725H237.918V60.4767ZM285.882 42.8549C285.882 53.1823 293.422 61.6861 305.188 61.6861C316.652 61.6861 324.494 53.1823 324.494 42.8549V11.8725H316.048V41.0312C316.048 48.9272 311.52 53.7902 305.49 53.7902C299.157 53.7902 294.931 48.9272 294.931 41.0312V11.8725H285.882V42.8549ZM343.202 60.4767H351.648V11.8725H343.202V60.4767ZM372.765 60.4767H401.724V52.8847H381.513V11.8725H373.067L372.765 60.4767ZM54.5039 33.7431C51.7872 28.2786 47.2657 20.3763 40.323 15.8236C33.9904 11.2646 27.6514 8.83948 21.9225 8.83948H9.55273V59.8689H21.9225C27.9533 59.8689 34.2922 57.4374 40.6249 52.8847C47.5612 48.0217 52.089 40.4297 54.8057 34.6613L55.1076 34.0534L54.5039 33.7431ZM18.3002 17.6473H21.6206C25.8466 17.6473 30.3681 19.1669 34.8959 22.5102C38.2163 24.9417 41.5304 28.8865 44.8508 34.6613C41.5304 40.4297 38.5182 44.3809 34.8959 46.8123C30.3681 50.1556 25.5447 51.6753 21.6206 51.6753H18.3002C18.3002 48.6296 18.3002 20.3827 18.3002 17.6473Z" fill="#13130A"/>
</svg>
