<svg width="276" height="71" viewBox="0 0 276 71" fill="none" xmlns="http://www.w3.org/2000/svg">
<g clip-path="url(#clip0_872_463)">
<path d="M66.4403 31.7299C57.1303 31.2299 52.7103 24.5599 52.4403 18.1499C52.3203 9.51995 58.8503 5.37995 64.4403 4.45995C74.0003 2.89995 81.5303 8.78995 82.0003 9.19995L84.4203 5.19995C78.4558 1.13898 71.2275 -0.636161 64.0603 0.199947C55.0603 1.31995 46.4403 8.09995 47.5803 20.1299C48.3103 27.8299 55.6803 35.9199 66.7503 36.0199C70.1508 36.0769 73.5292 35.4624 76.6917 34.2114C79.8543 32.9604 82.7389 31.0977 85.1803 28.7299L82.3903 25.3399C80.9803 26.7299 74.5503 32.1399 66.3903 31.7099" fill="#000E1A"/>
<path d="M175.599 10.09C175.599 13.7 172.709 15.02 168.969 15.21H153.589V4.76005H170.299C172.089 4.76005 175.629 6.41005 175.609 10.11M153.609 19.32H168.799C174.679 19.54 176.399 22.22 176.499 25.57C176.619 29.57 173.149 31.4001 168.609 31.3701H153.609V19.32ZM180.199 9.72005C180.129 7.34005 179.399 0.550049 166.909 0.550049H148.779V35.43H166.209C168.659 35.43 181.269 36.48 181.269 25.3C181.321 23.5649 180.824 21.8576 179.849 20.4212C178.874 18.9849 177.471 17.8927 175.839 17.3C177.214 16.5842 178.354 15.4902 179.127 14.1471C179.899 12.804 180.272 11.2678 180.199 9.72005Z" fill="#000E1A"/>
<path d="M122.85 21.7601H108.85L115.85 6.42006L122.85 21.7501M134.35 35.4301L118.26 0.560059H113.8L97.6699 35.4301H102.67L107 25.8801H124.66L129 35.4301H134.35Z" fill="#000E1A"/>
<path d="M218.93 21.7601H205L212 6.42006L219 21.7501M230.5 35.4301L214.35 0.560059H209.89L193.76 35.4301H198.76L203.13 25.8701H220.79C221 26.3501 225.14 35.4401 225.14 35.4401L230.5 35.4301Z" fill="#000E1A"/>
<path d="M248.61 31.3901V0.560059H243.83V35.4401H276V31.3901H248.61Z" fill="#000E1A"/>
<path d="M22.72 15.68C11.85 15.18 6.4 15.75 5.89 10.68C5.64 8.16 8.25 5.68 12.98 4.68C19.2163 3.60663 25.6268 4.96676 30.89 8.48C31.45 7.43 32.7 5.15 33.17 4.37C28.3987 1.57225 22.9807 0.0660978 17.45 0C12.79 0 1.08 1.51 1.1 10.72C1.1 20.14 13.6 19.82 16.46 20.03C20.46 20.31 29.55 19.31 29.46 25.11C29.36 29.96 23.35 31.84 18.16 31.83C15.07 31.83 10.16 31.59 2.35 26.21L0 30.18C8.17 35.67 14.2 36.09 18.23 36.09C33.79 36.09 34.23 26.09 34.23 24.82C34.08 18.21 29 16 22.72 15.68Z" fill="#000E1A"/>
<path d="M12.3508 70.14H10.4808V62.42L6.32078 68.59L2.21078 62.42V70.14H0.300781V59.14H2.17078L6.33078 65.46L10.4908 59.14H12.3608L12.3508 70.14Z" fill="#000E1A"/>
<path d="M34.1806 70.14H32.0006L30.6006 67.57H23.9006L22.5406 70.14H20.3906L26.3306 59.14H28.2006L34.1806 70.14ZM27.2406 61.25L24.8406 65.7H29.6306L27.2406 61.25Z" fill="#000E1A"/>
<path d="M48 59.15C50.4 59.15 53.6 60.06 53.6 64.6C53.6 68.4 50.95 70.14 48 70.14H42V59.14L48 59.15ZM48 68.27C48.4934 68.3111 48.9898 68.2456 49.4556 68.0778C49.9214 67.9101 50.3456 67.644 50.6994 67.2978C51.0533 66.9515 51.3285 66.5331 51.5063 66.0711C51.6841 65.6091 51.7604 65.1142 51.73 64.62C51.76 61.91 50 61 48 61H43.87V68.25L48 68.27Z" fill="#000E1A"/>
<path d="M72.5209 70.14H62.6309V59.14H72.3009V61H64.5009V63.52H68.7809V65.39H64.5009V68.25H72.5009L72.5209 70.14Z" fill="#000E1A"/>
<path d="M97.9997 70.14H96.1797V61H91.9297V59.15H102.24V61H97.9997V70.14Z" fill="#000E1A"/>
<path d="M116.37 70.4799C112.19 70.4799 109.65 67.8299 109.65 64.6499C109.65 61.4699 112.15 58.8199 116.37 58.8199C120.59 58.8199 123.09 61.4899 123.09 64.6499C123.09 67.8099 120.59 70.4799 116.37 70.4799ZM121.23 64.6499C121.23 62.5299 119.41 60.6499 116.37 60.6499C113.33 60.6499 111.51 62.4999 111.51 64.6499C111.51 66.7999 113.33 68.6499 116.37 68.6499C119.41 68.6499 121.23 66.7699 121.23 64.6499Z" fill="#000E1A"/>
<path d="M156.81 70.14H154.94V62.42L150.83 68.59L146.71 62.42V70.14H144.84V59.14H146.71L150.87 65.46L155.03 59.14H156.9L156.81 70.14Z" fill="#000E1A"/>
<path d="M176.71 70.14H166.83V59.14H176.5V61H168.69V63.52H173V65.39H168.72V68.25H176.72L176.71 70.14Z" fill="#000E1A"/>
<path d="M197.82 70.14H195.61L194.21 67.57H187.51L186.15 70.14H184L189.94 59.14H191.81L197.82 70.14ZM190.88 61.25L188.48 65.7H193.27L190.88 61.25Z" fill="#000E1A"/>
<path d="M215 62C213.646 61.1348 212.066 60.6926 210.46 60.73C208.46 60.73 207.38 61.26 207.38 62.19C207.38 63.12 207.76 63.59 210.92 63.59C215.92 63.59 216.46 65.1 216.46 66.81C216.46 69.97 213.51 70.52 211.05 70.52C208.753 70.6195 206.487 69.9626 204.6 68.65L205.49 67.02C207.124 68.1699 209.094 68.7433 211.09 68.65C213.09 68.65 214.44 68.23 214.44 67C214.44 65.6 213.72 65.56 209.6 65.45C207.1 65.45 205.36 64.69 205.36 62.4C205.36 60.55 206.74 58.86 210.43 58.86C212.332 58.8948 214.196 59.3961 215.86 60.32L215 62Z" fill="#000E1A"/>
<path d="M235.86 65.37C235.86 68.15 234.86 70.48 230.56 70.48C226.26 70.48 225.26 68.15 225.26 65.37V59.15H227.13V65.37C227.13 67.37 227.51 68.62 230.57 68.62C233.63 68.62 234 67.36 234 65.37V59.15H235.87L235.86 65.37Z" fill="#000E1A"/>
<path d="M256.999 70.14H254.669L251.509 65.64H247.649V70.14H245.779V59.14H252.569C254.779 59.14 256.749 59.88 256.749 62.3C256.778 62.7111 256.723 63.1237 256.589 63.5133C256.456 63.903 256.245 64.2619 255.97 64.5686C255.695 64.8754 255.361 65.1239 254.988 65.2993C254.615 65.4748 254.211 65.5736 253.799 65.59L256.999 70.14ZM252.759 63.78C253.989 63.78 254.879 63.44 254.879 62.36C254.879 61.28 254.079 61 252.659 61H247.659V63.76L252.759 63.78Z" fill="#000E1A"/>
<path d="M275.499 70.14H265.619V59.14H275.289V61H267.479V63.52H271.759V65.39H267.479V68.25H275.479L275.499 70.14Z" fill="#000E1A"/>
</g>
<defs>
<clipPath id="clip0_872_463">
<rect width="276" height="70.48" fill="white"/>
</clipPath>
</defs>
</svg>
