<svg width="250" height="30" viewBox="0 0 250 30" fill="none" xmlns="http://www.w3.org/2000/svg">
<mask id="mask0_871_462" style="mask-type:luminance" maskUnits="userSpaceOnUse" x="0" y="0" width="250" height="30">
<path d="M0 0V30H250V0" fill="white"/>
</mask>
<g mask="url(#mask0_871_462)">
<path d="M4.76277 2.11433C4.72201 1.99643 4.66292 1.85836 4.52436 1.79991C3.97114 1.56309 3.27425 1.5631 2.68027 1.4452C1.90596 1.24869 1.01347 1.29202 0.241191 1.11466C0.161722 1.05521 0.0628951 1.05518 0.00278404 0.937277C-0.0175926 0.681315 -0.136796 0.366927 0.0435373 0.154297C0.241191 -0.0270935 0.539709 0.0363785 0.775059 0.0132008C2.8005 0.0363785 4.90133 0.0132008 6.94307 0.0132008C7.50037 0.0514944 8.0536 0.0132008 8.63127 0.0132008C9.60222 0.0716489 10.2268 -0.00695371 11.158 0.0132008C11.2772 -0.0472627 12.2604 0.0132008 12.3959 0.0132008C13.4901 0.0132008 14.4019 -0.00695371 15.4727 0.0132008H19.7345C20.2918 0.0132008 21.0834 0.0132289 21.6214 0.130125C21.7009 0.15431 21.7202 0.268167 21.7803 0.327623C21.8598 1.23256 21.7803 2.19294 21.8364 3.0747V8.06295C21.8007 8.29876 21.8598 8.59402 21.6407 8.73208C21.5022 8.79053 21.3229 8.75121 21.1833 8.71191C21.0641 8.6333 21.0243 8.49525 20.9846 8.3572C20.7656 7.47544 20.6861 6.51105 20.3122 5.7089C20.0898 5.11727 19.8168 4.54545 19.4961 3.99976L19.4523 3.93327L19.4207 3.84261C18.8033 2.60613 17.5736 1.56308 16.1452 1.52479C15.348 1.4415 14.5458 1.41492 13.7448 1.4452C13.6857 1.4452 13.65 1.44114 13.6134 1.44114L13.4911 1.4452C12.3357 1.38675 11.1896 1.4452 10.0362 1.4452C9.76116 1.48853 9.36381 1.40993 9.24359 1.74449C9.20246 2.54161 9.18276 3.33968 9.1845 4.13784C9.16412 5.80663 9.19571 7.44018 9.17635 9.14928C9.21608 9.38106 9.16412 9.65313 9.34344 9.82948C9.56249 10.0068 9.861 9.94838 10.1391 9.98768C11.5645 10.0854 13.0927 10.0663 13.864 8.75121C14.7198 7.45628 15.1141 5.96485 15.2333 4.37365C15.2934 4.25575 15.3128 4.07839 15.4727 4.03506C15.6714 3.99979 15.8701 3.99976 16.026 4.11766L16.1054 4.25575L16.1258 6.3538L16.1054 11.6172V16.8171C16.0647 16.9743 16.0647 17.1909 15.8905 17.2504C15.6317 17.2302 15.3332 17.3481 15.1742 17.1325C15.0346 16.679 15.0744 16.1519 14.9745 15.6793C14.7799 14.5416 14.3816 13.4794 13.7254 12.5181C13.1916 11.8298 12.4753 11.5144 11.644 11.4801C10.9715 11.46 10.295 11.4993 9.64196 11.5144C9.48302 11.5144 9.2874 11.5426 9.21201 11.6797C9.21201 13.1993 9.1845 16.3999 9.1845 16.3999C9.1845 16.3999 9.22423 19.3605 9.22423 20.8792C9.28333 21.1009 9.50238 21.1745 9.68169 21.1946C12.0413 21.2531 14.3622 21.2772 16.6627 21.0011C19.5195 20.4902 20.7095 17.3683 21.5022 15.0737C21.7202 14.3249 21.8761 13.5581 22.035 12.7942C22.057 12.7041 22.1141 12.6261 22.194 12.5775C22.3539 12.5181 22.572 12.4395 22.7115 12.5977C22.9306 13.1086 22.8348 13.6286 22.8511 14.3249V22.1197C22.8104 22.2729 22.8073 22.5057 22.6473 22.5802C22.0951 22.682 21.4258 22.6427 20.8532 22.6427H11.9506L7.91503 22.6467C7.3017 22.6316 6.82794 22.6628 6.17589 22.6427L1.82955 22.6467C1.35172 22.6115 0.710872 22.7414 0.357338 22.3907C0.341036 22.0804 0.201456 21.6077 0.540727 21.4304C1.82955 21.2339 3.15505 21.2138 4.40414 20.9427C4.82186 20.722 4.70266 20.1949 4.74239 19.7818L4.76277 2.11433ZM24.5342 22.6115C24.4344 22.5712 24.3152 22.5329 24.2561 22.415C24.2204 22.159 24.1399 21.8043 24.415 21.6471C25.1313 21.509 25.8638 21.4344 26.58 21.2964C26.8745 21.2379 27.3126 21.1825 27.4318 20.848C27.4318 19.8483 27.391 19.1348 27.4318 18.2541V16.4119L27.4522 10.9904C27.3523 10.5187 27.5714 9.88894 27.0538 9.61685C26.3213 9.3619 25.4899 9.34171 24.6932 9.20365C24.5943 9.1835 24.4344 9.1251 24.3946 9.0072C24.3946 8.82984 24.3152 8.59805 24.4548 8.48015C24.6137 8.32194 24.8725 8.36119 25.0915 8.32189C26.8144 8.28259 28.4231 8.04681 30.15 7.98736C30.2149 7.97806 30.281 7.9877 30.3404 8.0151C30.3998 8.04249 30.4497 8.08645 30.4842 8.14155C30.6431 8.85402 30.5046 9.65718 30.6635 10.3616C30.6839 10.42 30.7623 10.4402 30.8225 10.4009C31.1607 9.99174 31.34 9.47978 31.6936 9.06661C31.7343 9.06661 31.7547 9.04648 31.7934 9.02633C31.8729 8.81067 32.0522 8.69174 32.2315 8.51539C33.0629 7.87045 34.2926 7.75155 35.343 8.02666C35.6018 8.20402 35.9401 8.20404 36.1785 8.37737C36.693 8.73209 37.1504 9.26316 37.1504 9.88896C37.2696 10.8332 36.912 11.7583 36.1194 12.247C35.7016 12.503 35.1046 12.503 34.6512 12.3256C34.3924 12.1684 34.0736 11.9709 33.935 11.6958C33.4806 10.9521 33.7394 9.9121 34.2529 9.26313C34.2529 9.18453 34.313 9.10594 34.2529 9.02633C33.9543 8.85401 33.6212 9.04646 33.342 9.14522C32.4699 9.77505 32.0318 10.6961 31.5947 11.5779C31.0609 12.9161 30.7226 14.3491 30.6829 15.8607C30.6034 17.47 30.4445 19.0572 30.5036 20.6867C30.5036 21.241 31.3675 21.1906 31.933 21.2692C32.5096 21.3316 32.8642 21.383 33.286 21.4425C33.5804 21.4536 33.6833 21.6037 33.883 21.7216C34.0226 21.9383 34.0226 22.2527 33.9421 22.4654C33.883 22.6236 33.6956 22.5873 33.557 22.6074C29.2708 22.6074 26.1419 22.6236 24.5342 22.6115Z" fill="#211E1E"/>
<path d="M61.1754 17.7503C61.1754 18.7661 61.1673 19.9109 61.1754 20.8874C61.1958 21.0254 61.2753 21.1625 61.4138 21.2421C62.2065 21.5374 63.0582 21.3398 63.8498 21.6351C63.9691 21.8326 63.9731 22.1118 63.91 22.4191C63.8264 22.7144 63.2925 22.6388 62.9349 22.6388H55.5199C55.3803 22.6187 55.2448 22.4625 55.1663 22.3597C55.1256 22.1672 55.0665 21.8719 55.2254 21.6946C55.7787 21.4578 56.4755 21.5374 57.0685 21.3792C57.3466 21.2814 57.8438 21.2653 57.9834 20.8914C57.9834 19.8434 57.9793 19.0926 58.0038 17.9035V15.6835L57.9834 10.9562C57.963 10.2075 57.5249 9.44467 56.7893 9.16855C56.177 8.87329 55.3049 8.91663 54.768 9.32576C53.8765 10.1491 53.3987 11.2707 52.9646 12.3288C52.5265 13.5461 52.388 14.8612 52.3085 16.2186L52.3289 20.8914C52.3483 21.0093 52.4073 21.226 52.5276 21.2613C53.1246 21.5565 53.9162 21.3792 54.5092 21.6543C54.6681 21.8327 54.609 22.1672 54.5693 22.3989C54.4888 22.7617 54.175 22.6005 53.96 22.6388H49.3835L46.5256 22.6428C46.3463 22.6428 46.2628 22.3798 46.22 22.2649C46.22 22.009 46.1833 21.7339 46.438 21.616C47.2144 21.4588 48.1058 21.5757 48.7986 21.2421C49.1685 20.8521 49.0207 20.7302 49.0167 20.1235L49.0207 18.4034L49.0167 12.8931C48.9178 11.5972 49.3152 9.93644 48.006 9.24716C47.4884 9.05065 46.816 9.08992 46.3983 9.46379C44.3769 11.5427 43.4814 14.1125 43.3418 16.9986C43.2966 18.2958 43.2911 19.5939 43.3255 20.8914C43.3662 21.1081 43.4253 21.2421 43.68 21.3006C44.2373 21.4588 44.8945 21.4588 45.4671 21.5928C45.5863 21.616 45.6657 21.6936 45.7258 21.7934C45.7656 22.0292 45.786 22.3405 45.6464 22.5169C45.5068 22.6942 45.196 22.6237 44.9576 22.6388L38.3077 22.6348H37.4162C37.3252 22.6043 37.2477 22.5434 37.1972 22.4625C37.1371 22.2216 37.1177 21.8881 37.3561 21.7339C37.7942 21.616 38.268 21.5766 38.7254 21.5172C39.1197 21.3993 39.5568 21.3792 39.9348 21.226C40.1691 21.0688 40.1691 20.7927 40.214 20.5569L40.1977 18.2583L40.214 13.7235L40.2537 10.3455C40.2292 10.0735 40.1702 9.7198 39.8757 9.64019C39.0637 9.48399 38.268 9.32578 37.3959 9.30664C37.3368 9.26633 37.2767 9.24716 37.2369 9.16855C37.1768 8.97205 37.1962 8.7201 37.3164 8.5629L37.4753 8.46418C39.3373 8.30951 41.2017 8.18484 43.0677 8.09028C43.2266 8.07013 43.3255 8.16891 43.406 8.26766L43.4651 8.66063L43.4854 10.8172C43.5058 10.8575 43.5445 10.8968 43.5843 10.9169C43.7839 10.8807 43.8828 10.6409 43.9989 10.5038C44.6357 9.46383 45.5863 8.32709 46.816 8.05098C47.1746 7.93307 47.572 7.91291 47.9673 7.89377C49.1766 7.89377 50.227 8.24748 51.142 8.97204C51.6758 9.44466 51.9346 10.0745 52.2087 10.661C52.229 10.7195 52.3279 10.798 52.388 10.7194C52.7853 9.89714 53.2795 9.01137 54.1149 8.46418C55.0665 7.8545 56.2758 7.65796 57.4669 7.85446C58.716 8.09027 59.965 8.72012 60.6578 9.87699C61.1163 10.6408 61.1673 11.1255 61.1673 12.487L61.1754 17.7503ZM85.6274 22.6318C85.6274 22.6318 84.4893 22.7295 84.3701 22.4544C84.3701 22.2378 84.31 21.9616 84.4292 21.7893C84.8031 21.5293 85.3207 21.6079 85.7588 21.5293C86.1928 21.4346 86.7094 21.5092 86.9885 21.1C87.124 19.8636 87.0283 18.5848 87.1241 17.3291C87.1475 16.5612 87.0833 15.7581 87.1831 15.0144C87.0843 13.5613 87.2433 11.971 86.9692 10.5783C86.7695 9.98782 86.1725 9.49506 85.5795 9.33887C84.847 9.20383 84.1511 9.43658 83.7334 10.0463C82.1684 12.0466 81.2933 14.3452 81.2739 16.9552C81.2332 18.2935 81.1578 19.663 81.2128 20.962C81.3931 21.4699 81.8985 21.4154 82.3916 21.5172C82.9254 21.6512 83.5938 21.4144 83.6529 22.0211C83.6529 22.2569 83.6132 22.5128 83.4389 22.6509C82.6065 22.6428 79.8404 22.6428 79.009 22.6428L75.5623 22.6509C75.4431 22.5884 75.2282 22.6711 75.165 22.4736C75.1487 22.2377 75.0692 21.9223 75.2282 21.7067C75.5226 21.5092 75.921 21.6079 76.2592 21.5091C76.8124 21.4154 77.3698 21.3913 77.8822 21.1948C78.2806 20.9025 78.1216 20.313 78.2011 19.8242C78.2011 18.9777 78.2011 18.093 78.2409 17.2304V11.7352C78.2001 11.1447 78.2612 10.5783 78.0615 10.0463C77.9487 9.93173 77.8052 9.85136 77.6479 9.8145C76.8522 9.67644 76.0004 9.71174 75.2282 9.55857C75.0091 9.42051 75.0692 9.14137 75.0692 8.92874C75.1844 8.45612 75.762 8.67273 76.0993 8.57397C77.6836 8.43692 79.3116 8.35731 80.8796 8.28273C81.0192 8.29886 81.1384 8.35732 81.1741 8.47623C81.3136 9.33784 81.2138 10.3022 81.333 11.184C81.3931 11.2626 81.3534 11.4007 81.4756 11.4208C81.6713 11.3805 81.6916 11.184 81.7915 11.0702C82.2683 10.1834 82.7614 9.16555 83.7527 8.67176C84.5484 8.29891 85.5 8.16081 86.4516 8.25856C86.6696 8.33817 86.9488 8.28275 87.1475 8.43693C87.4817 8.43693 87.7802 8.59413 88.0787 8.69188C89.3084 9.30256 90.2794 10.5582 90.3588 11.9317C90.3191 14.9751 90.2203 17.8602 90.2203 20.9186C90.3191 21.234 90.6339 21.3318 90.9131 21.3912C91.5091 21.5293 92.1224 21.5485 92.7358 21.6472C92.9976 21.8437 92.9141 22.2377 92.8784 22.5138C92.8387 22.6116 92.8703 22.6045 92.7908 22.6428L85.6274 22.6318ZM119.504 22.6439C119.364 22.6439 119.241 22.5995 119.182 22.4857C119.101 22.265 119.105 21.9939 119.245 21.8205C119.619 21.623 120.117 21.6432 120.535 21.5606C121.067 21.486 121.625 21.4034 122.118 21.2058C122.496 20.9741 122.357 20.4621 122.377 20.0691L122.417 18.1443L122.397 10.6489C122.356 10.4917 122.356 10.3335 122.257 10.2156C121.704 9.88102 121.028 9.88101 120.376 9.80644C119.958 9.74698 119.404 9.84169 119.145 9.44767C119.126 9.2945 119.126 9.05868 119.225 8.92062C119.384 8.80272 119.599 8.78262 119.798 8.76347C121.585 8.76347 123.293 8.52662 125.055 8.42887C125.112 8.43613 125.167 8.45583 125.215 8.48651C125.263 8.51718 125.304 8.55808 125.334 8.60626L125.393 9.31469V13.1995C125.393 15.5535 125.354 17.97 125.414 20.3644C125.469 20.6788 125.393 21.1121 125.728 21.2653C126.245 21.4225 126.838 21.4034 127.416 21.4467C128.287 21.486 129.178 21.486 129.974 21.3288C130.17 21.2653 130.504 21.1514 130.524 20.9348C130.524 18.4588 130.531 13.9512 130.531 13.9512L130.511 9.74696L130.528 3.08696C130.467 2.61836 130.467 2.34326 130.189 2.2052C129.298 1.93311 128.307 1.93311 127.376 1.79605C127.297 1.75575 127.157 1.71741 127.157 1.5985C127.116 1.43726 127.116 1.26396 127.217 1.14605C127.575 0.929391 128.048 1.00799 128.466 0.949538C129.716 0.854812 131.026 0.79231 132.255 0.598827C132.669 0.555495 133.126 0.457777 133.525 0.555526C133.719 0.772187 133.625 1.08761 133.66 1.38187V20.446C133.681 20.7181 133.719 20.9932 134.003 21.1312C134.894 21.4235 135.905 21.4235 136.816 21.6785C137.015 21.875 136.976 22.2498 136.915 22.5249C136.761 22.6781 136.08 22.6308 136.08 22.6308L119.504 22.6428M218.39 22.6318C218.287 22.6126 218.195 22.5562 218.132 22.4736C218.052 22.2216 217.932 21.8488 218.171 21.6311C218.307 21.4739 218.565 21.5334 218.744 21.4548C219.386 21.3942 220.022 21.2819 220.646 21.1192C221.243 20.962 221.005 20.2968 221.105 19.8635C221.084 18.2542 221.164 16.6832 221.144 15.0567V11.188C221.005 10.6962 221.303 9.87292 220.591 9.75502C219.899 9.65934 219.203 9.59383 218.506 9.55857C218.326 9.51826 218.151 9.51823 218.052 9.34188C217.992 9.06677 217.952 8.69694 218.207 8.49942C218.704 8.38152 219.282 8.40064 219.815 8.36134C220.789 8.30359 221.761 8.22502 222.732 8.12558C222.852 8.04698 223.027 8.00768 223.146 8.04698C223.424 8.00667 223.763 8.00661 224.002 8.16483C224.097 8.27374 224.147 8.41422 224.141 8.55785C224.181 9.36202 224.216 10.0695 224.216 10.8736C224.276 10.9522 224.241 11.1095 224.376 11.1488C224.794 10.7749 224.873 10.2277 225.211 9.8145C225.944 8.53872 227.293 8.00768 228.721 8.00768C230.484 8.00768 232.252 9.05062 232.845 10.7154C233.242 11.4238 233.083 12.3651 233.103 13.1914C233.004 15.624 233.024 18.0415 232.964 20.5095C232.905 21.2028 233.616 21.1595 234.054 21.2572C234.533 21.3358 234.993 21.3641 235.483 21.4941C235.761 21.6946 235.682 22.143 235.603 22.4191C235.523 22.537 235.408 22.5884 235.289 22.6308H227.531C227.213 22.5522 227.273 22.1591 227.233 21.9072C227.253 21.7298 227.293 21.5525 227.492 21.4941C228.184 21.3358 228.996 21.4154 229.613 21.0647C229.697 20.9409 229.751 20.7996 229.772 20.6516C229.792 17.5256 229.892 14.447 229.813 11.3452C229.833 10.5622 229.474 9.75505 228.742 9.42048C228.105 9.06677 227.253 9.26327 226.755 9.73589C224.953 11.9126 224.141 14.5064 224.161 17.4309C224.141 18.6079 224.101 19.6912 224.141 20.8481C224.356 21.3359 224.965 21.2925 225.446 21.3751C225.884 21.4547 226.536 21.4265 226.597 21.8679C226.636 22.1239 226.636 22.399 226.421 22.5562L226.222 22.6318H218.39ZM189.194 22.6439L189.652 22.5885C189.846 22.528 189.846 22.3123 189.891 22.1591C189.847 21.0174 189.926 19.9149 189.891 18.7581V13.1642C189.826 12.9284 189.907 12.6129 189.811 12.4003C189.692 12.2229 189.473 12.2038 189.273 12.223C189.135 12.2431 189.055 12.361 189.035 12.4749C188.816 14.7352 188.183 16.8565 187.053 18.7581C186.3 20.1114 184.907 21.234 183.364 21.4114H176.681C176.562 21.3711 176.403 21.3913 176.324 21.2532C176.308 21.0781 176.357 20.9032 176.462 20.7614L178.704 17.2304C179.001 16.7769 179.276 16.3053 179.594 15.8569C181.398 13.1441 183.185 10.4353 184.991 7.72751C186.377 5.56695 187.905 3.46887 189.273 1.30831C189.433 0.972734 189.819 0.57167 189.899 0.197804C189.858 0.119201 189.799 0.0406014 189.699 0.0244778C188.362 0.000292362 185.648 0.000244141 185.648 0.000244141L183.713 0.012361L178.118 0.00830152C178.118 0.00830152 174.949 0.0284846 173.832 0.012361C173.637 0.0949944 173.645 0.367049 173.585 0.559524C173.565 1.77988 173.585 2.85818 173.585 4.07451V8.11747L173.626 8.33821C173.725 8.53069 173.944 8.49136 174.122 8.49136C174.262 8.45206 174.318 8.33819 174.381 8.23943C174.577 6.86187 174.915 5.54681 175.571 4.34963C176.284 3.05571 177.395 1.48462 179.001 1.22866C180.685 1.22866 182.412 1.13091 184.04 1.30726C184.176 1.34757 184.254 1.48467 184.176 1.62273C182.946 3.76415 181.502 5.84203 180.152 7.94113C178.644 10.3577 177.075 12.7309 175.491 15.1282C174.007 17.2852 172.578 19.4787 171.205 21.7067C171.066 21.9586 170.848 22.1591 170.848 22.4504C170.946 22.667 171.225 22.6076 171.404 22.6428H189.194M151.186 18.4779C150.451 16.9865 150.292 14.9831 150.789 13.3335C151.402 11.5266 152.572 9.62502 154.399 8.66063C154.992 8.2908 155.668 8.11346 156.301 7.87765C157.789 7.42417 159.437 7.77889 160.702 8.46818C162.037 9.21188 163.202 10.4675 163.858 11.8017C164.67 13.4514 164.81 15.7309 164.272 17.5377C164.097 18.0456 163.919 18.5575 163.64 19.009C162.23 21.4981 159.576 23.0923 156.679 22.797C154.319 22.5169 152.098 20.6586 151.187 18.4779H151.186ZM156.918 21.6593C157.968 21.9506 158.979 21.5404 159.695 20.8169C160.447 19.8716 160.842 18.8125 161.04 17.6324C161.259 15.4557 161.299 13.0221 160.647 11.0187C160.269 9.99489 159.338 9.01537 158.227 8.79871C157.157 8.54678 156.161 8.93678 155.409 9.62506C153.881 11.4873 153.822 14.0621 153.941 16.5139C154.04 17.9862 154.459 19.3405 155.23 20.5407C155.648 21.1474 156.281 21.4578 156.918 21.6593Z" fill="#211E1E"/>
<path d="M139.148 22.178C136.768 20.7299 135.793 18.1159 135.877 15.4273C135.952 13.0148 136.924 10.952 138.571 9.22373C139.283 8.45584 140.059 7.86933 141.031 7.65266L141.131 7.57406C141.508 7.47631 141.906 7.47631 142.321 7.40073C142.578 7.41686 142.877 7.37761 143.112 7.49552C143.411 7.55497 143.669 7.71215 143.948 7.83005C144.6 8.16461 145.099 8.86904 145.432 9.47972C145.512 9.51902 145.551 9.69639 145.651 9.59763C145.791 9.42027 145.81 9.16832 145.81 8.95267C145.826 6.71552 145.81 4.54686 145.81 2.23614C145.809 2.15066 145.781 2.0676 145.732 1.99756C145.682 1.92752 145.613 1.87374 145.532 1.84318C144.242 1.40985 142.818 1.33125 141.388 1.25265C141.289 1.25265 141.19 1.19315 141.11 1.1337C141.01 0.941221 140.971 0.626836 141.131 0.429322C141.21 0.331573 141.329 0.350735 141.429 0.331588C143.108 0.314582 144.787 0.24867 146.462 0.134028C147.14 0.0947271 147.797 0.0231934 148.509 0.0231934C148.672 0.0362938 148.768 0.0362987 148.827 0.154203L148.883 0.331588V6.35371L148.895 13.6043C148.895 13.6043 148.871 18.3245 148.883 20.7813C148.883 20.997 149.022 21.1784 149.221 21.2378C149.997 21.5331 150.929 21.4736 151.741 21.647C151.939 21.7881 151.86 22.0833 151.86 22.2768C151.561 22.69 150.491 22.6588 150.491 22.6588L148.931 22.6426C148.931 22.6426 147.024 22.6506 146.088 22.6506C145.85 22.6305 145.87 22.3947 145.81 22.2416C145.81 21.7105 145.77 21.1985 145.751 20.6896C145.751 20.4276 145.83 20.2765 145.591 20.1556C145.432 20.218 145.392 20.4145 145.313 20.5526C145.018 21.2771 144.481 22.0208 143.729 22.4733C142.977 22.9852 141.922 23.0054 140.991 22.8673C140.358 22.7101 139.721 22.4934 139.148 22.178ZM140.809 21.3477C141.42 21.8354 142.392 21.9342 143.148 21.6238C143.661 21.4857 143.979 20.9345 144.314 20.5647C144.851 19.561 145.269 18.5169 145.369 17.3601C145.547 15.3608 145.603 13.1992 145.129 11.3178C144.791 10.3141 144.457 9.09779 143.307 8.64532C142.77 8.41354 142.077 8.44781 141.54 8.64532C141.082 8.84183 140.628 9.25497 140.33 9.68829C139.339 11.0225 139.359 12.7699 139.24 14.4548C139.219 16.3997 139.14 18.4233 139.853 20.0921C140.112 20.5405 140.351 21.0524 140.809 21.3477ZM236.176 21.4424C235.404 20.478 235.384 19.049 235.643 17.8478C236.295 16.1206 238.139 15.0413 239.905 14.8246C240.995 14.5888 242.225 14.6675 243.181 14.1394C244.171 13.3534 243.874 12.0776 243.912 10.9197C243.833 10.3695 243.714 9.8616 243.436 9.40813C242.822 8.48303 241.553 8.56166 240.582 8.79847C239.905 8.99498 239.233 9.36884 238.735 9.97952C238.676 10.0349 238.695 10.1529 238.714 10.2315C238.874 10.4874 239.133 10.6043 239.292 10.8371C239.726 11.3883 239.666 12.3336 239.333 12.8999C238.934 13.4713 238.337 13.9036 237.625 13.7071C236.953 13.6083 236.415 13.0218 236.196 12.4313C235.782 11.1757 236.515 10.1176 237.267 9.19248C239.133 7.44408 242.006 7.12968 244.406 7.87741C245.616 8.25128 246.866 9.38897 247.025 10.6839C247.085 11.349 247.045 12.1169 247.005 12.8253C246.985 15.3174 246.866 17.9073 247.066 20.4034C247.104 20.734 247.284 21.1079 247.662 21.2258C247.783 21.2793 247.916 21.3002 248.048 21.2864C248.18 21.2726 248.306 21.2246 248.414 21.1472C248.908 20.7924 248.793 20.1434 248.892 19.5952V16.8089C248.927 16.7101 249.007 16.5922 249.106 16.5529C249.386 16.5529 249.743 16.4944 249.921 16.7696C250.098 17.6513 250.002 18.6158 250.002 19.557C249.942 20.6151 249.902 21.8949 248.752 22.3826C247.877 22.7766 246.651 22.8512 245.736 22.5015C244.943 22.2063 244.33 21.3396 244.033 20.6161C243.953 20.5213 243.814 20.4578 243.714 20.5405C243.336 20.9698 242.941 21.4777 242.504 21.8324C241.056 22.954 238.615 23.1122 237.032 22.2053C236.693 22.0138 236.435 21.7377 236.176 21.4424ZM240.601 21.1079C241.354 21.0676 241.991 20.6584 242.563 20.1626C243.753 19.0682 243.933 17.5375 243.853 15.9433C243.813 15.6873 243.912 15.3961 243.714 15.1985C243.255 15.1985 242.862 15.4545 242.424 15.5341C241.394 15.5926 240.363 15.7458 239.626 16.5338C238.636 17.474 238.44 19.0682 238.994 20.2805C239.371 20.8317 239.925 21.1471 240.601 21.1068M109.805 29.6453C109.268 29.4488 108.675 29.354 108.157 29.0749C107.047 28.5478 105.638 27.6621 105.463 26.3077C105.399 25.4652 106.136 24.8555 106.748 24.3668C107.146 24.0917 107.604 23.875 107.958 23.5243C107.979 23.2099 107.584 23.1112 107.385 22.954C106.274 22.1277 105.758 20.9103 105.857 19.5963C105.937 18.5573 106.868 17.5375 107.819 17.1636C108.058 17.0225 108.376 17.0225 108.595 16.8049C108.675 16.5932 108.436 16.4743 108.297 16.3171C106.987 15.2973 106.47 13.7071 106.927 12.1169C107.485 9.94026 109.725 8.31072 111.886 7.97514C112.917 7.83809 113.988 7.95602 114.922 8.19183C114.979 8.19183 115.098 8.19183 115.157 8.11323C115.317 7.95602 115.317 7.74037 115.337 7.5227C115.416 7.12969 115.378 6.70039 115.476 6.32652C115.616 5.65739 116.288 5.14947 116.925 4.96808C117.557 4.81491 118.234 4.95302 118.688 5.40146C118.946 5.73602 119.105 6.20762 118.927 6.64094C118.847 6.97551 118.509 7.20826 118.194 7.26671C117.776 7.36547 117.399 7.20828 117.12 6.91705C116.984 6.73969 116.906 6.51898 116.686 6.38495C116.527 6.34565 116.427 6.46461 116.347 6.58251C116.149 6.99165 116.193 7.5227 116.193 8.03462C116.249 8.35004 116.193 8.7199 116.427 8.97586C117.955 10.172 119.026 11.9002 118.568 13.9036C117.896 16.1992 115.437 17.3954 113.176 17.5728C111.946 17.6907 110.716 17.2382 109.526 17.6131C108.735 17.7693 107.764 17.9859 107.445 18.8677C107.385 19.2415 107.326 19.6547 107.604 19.9459C108.615 20.8519 110.103 20.4196 111.409 20.478C112.165 20.4377 112.838 20.3833 113.589 20.3641C115.038 20.2815 116.408 20.5213 117.558 21.1824C119.126 22.2304 119.742 23.9144 119.504 25.7605C119.324 26.8983 118.668 27.9412 117.657 28.6456C115.535 30.2761 112.404 30.2943 109.805 29.6453ZM112.145 28.9963C113.852 29.0558 115.476 28.8432 116.846 28.036C117.318 27.7437 117.817 27.2519 118.036 26.7601C118.27 26.1354 118.334 25.2486 117.817 24.7407C116.606 23.5445 114.923 23.4417 113.236 23.3873C111.728 23.481 110.163 23.4418 108.89 24.0917C108.635 24.2489 108.436 24.4454 108.217 24.6228C107.998 24.918 107.879 25.2295 107.764 25.5247C107.501 26.4649 107.843 27.3709 108.535 28.0158C109.586 28.7242 110.875 28.9177 112.145 28.9963ZM111.489 16.4159C112.558 16.8875 113.928 16.6315 114.764 15.8445C116.129 14.6675 115.834 12.4515 115.516 10.8804C115.278 9.85757 114.226 8.97581 113.196 8.8176C111.966 8.60195 110.915 9.23076 110.259 10.172C109.825 10.9792 109.706 11.9204 109.706 12.9201C109.726 13.687 109.745 14.4549 110.04 15.1008C110.259 15.6873 110.916 16.1791 111.489 16.4159ZM207.621 28.9298C206.391 28.4179 205.002 27.654 204.425 26.3782C204.246 25.9651 204.246 25.4138 204.445 25.0249C204.962 24.2177 205.814 23.5919 206.625 23.1586C206.686 23.0991 206.785 23.0598 206.785 22.962C206.606 22.6315 206.211 22.4733 205.933 22.2133C205.217 21.5281 204.802 20.6664 204.764 19.6869C204.683 18.4666 205.357 17.349 206.466 16.7575C206.785 16.5459 207.223 16.561 207.478 16.2657C207.541 16.1871 207.462 16.1125 207.422 16.0491C206.092 14.9305 205.416 13.3454 205.914 11.6554C206.487 9.31747 208.846 7.62952 211.186 7.39674C212.182 7.27883 213.093 7.49148 214.024 7.66884C214.422 7.47536 214.283 6.94426 214.383 6.57039C214.443 5.9446 214.541 5.35406 215.075 4.90159C215.632 4.4723 216.444 4.27579 217.16 4.53176C217.554 4.66477 217.873 5.03866 217.972 5.42865C218.111 5.7874 218.051 6.21565 217.813 6.51092C217.554 6.86564 217.12 7.00373 216.682 6.88482C216.364 6.78707 215.986 6.4918 215.911 6.17638C215.886 6.13346 215.851 6.09713 215.808 6.07047C215.766 6.0438 215.718 6.02756 215.668 6.02317C215.234 6.17634 215.314 6.70843 215.254 7.10144C215.274 7.60934 215.095 8.22002 215.533 8.57373C217.081 9.7709 217.892 11.5385 217.514 13.439C216.982 15.4625 214.817 16.8169 212.874 17.092C211.982 17.2694 210.971 17.211 210.096 17.0719C208.89 17.0921 207.621 17.1122 206.725 17.9184C206.431 18.2539 206.292 18.781 206.447 19.2143C206.785 19.8794 207.541 19.958 208.234 20.0175C210.992 20.1354 214.124 19.2728 216.424 20.8236C218.051 21.9624 218.525 23.9224 218.132 25.8119C217.773 27.5351 216.007 28.7716 214.462 29.3037C214.303 29.3823 214.024 29.2634 213.944 29.4609C211.863 29.9527 209.523 29.5949 207.621 28.9298ZM213.944 28.2597C215.195 27.9644 216.683 27.1461 216.842 25.7101C217.017 24.8666 216.404 24.1985 215.772 23.7843C214.322 23.0598 212.535 22.9459 210.872 23.0598C209.343 23.2966 207.422 23.1586 206.745 24.8475C206.566 25.2567 206.487 25.7917 206.626 26.2603C206.765 26.9889 207.401 27.654 208.075 27.9644C209.861 28.6345 212.042 28.7172 213.944 28.2597ZM210.435 15.9352C211.345 16.3484 212.556 16.171 213.332 15.6006C214.144 15.0534 214.502 14.2069 214.621 13.3252C214.662 11.6957 214.717 9.96744 213.391 8.90832C212.616 8.3571 211.466 8.14143 210.574 8.5939C209.364 9.1411 208.89 10.3806 208.771 11.5768C208.727 12.6954 208.671 13.8532 209.145 14.7934C209.403 15.3285 209.937 15.6994 210.435 15.9352ZM93.6591 20.7733C93.1649 20.2452 92.7676 19.6547 92.572 18.9896C91.9953 17.7501 91.7966 16.2587 92.0157 14.7662C92.0554 14.5294 92.0748 14.2583 92.1746 14.0417C92.3132 13.2939 92.6086 12.5896 92.9469 11.9204C93.7976 10.3292 95.2668 8.60196 97.0334 8.05074C98.6381 7.42494 100.779 7.58215 102.088 8.75917C103.417 9.70341 103.954 11.1525 104.409 12.5694C104.568 13.3927 104.727 14.2583 104.687 15.1391C104.679 15.2002 104.657 15.2586 104.622 15.31C104.588 15.3613 104.542 15.4042 104.488 15.4353L104.293 15.4938H99.3543C99.1841 15.4543 99.007 15.4543 98.8368 15.4938C97.7466 15.4938 96.6952 15.4545 95.6244 15.5341C95.2668 15.652 95.3666 16.041 95.3065 16.3403C95.3463 18.1038 95.386 20.0286 97.0141 21.1068C98.1837 21.9896 100.067 21.9896 101.316 21.3003C101.963 20.9066 102.511 20.3711 102.917 19.7352C103.322 19.0993 103.575 18.3799 103.656 17.6322C103.716 17.3762 103.994 17.4347 104.19 17.3954C104.328 17.3954 104.428 17.3954 104.528 17.4549C104.667 17.6121 104.587 17.8479 104.587 18.0454C104.328 19.8291 103.198 21.6591 101.436 22.3635C99.1546 23.3238 96.2377 22.954 94.3345 21.4031L93.6591 20.7733ZM95.7996 14.2191C97.6773 14.3006 99.5576 14.3072 101.436 14.2392C101.933 14.0971 101.714 13.4904 101.793 13.0974C101.694 12.0574 101.793 10.959 101.296 10.0934C101.035 9.62686 100.648 9.24078 100.179 8.97764C99.7096 8.7145 99.1761 8.58451 98.6371 8.60196C97.8454 8.62211 97.1496 8.93653 96.5964 9.50691C96.2978 9.80217 96.0187 10.172 95.8832 10.565C95.5847 11.5264 95.4257 12.5704 95.3666 13.6285C95.4064 13.825 95.3463 14.082 95.5847 14.1798L95.7996 14.2191ZM66.66 15.5341C66.2015 15.6712 66.3218 16.2385 66.3014 16.6325C66.3218 18.3164 66.5408 20.0689 68.0446 21.1068C69.0797 21.8949 70.7435 21.9301 71.9335 21.4424C73.3619 20.7733 74.3929 19.2808 74.5519 17.7692C74.611 17.612 74.611 17.3964 74.8107 17.3359C75.0695 17.3561 75.4668 17.2221 75.6023 17.5133C75.5819 18.4384 75.3242 19.301 74.9095 20.088C73.7001 22.3242 71.2009 23.1273 68.7608 22.8159C67.2927 22.6385 65.9438 22.0723 64.8332 21.0293L64.4155 20.5758C63.0299 18.7689 62.5725 16.2577 63.1094 13.9631C63.5077 12.4313 64.2607 11.0578 65.3508 9.81831C66.66 8.35006 68.3431 7.60133 70.2891 7.62148C72.1719 7.73938 74.0384 9.09274 74.7709 10.8371C75.3435 12.0766 75.6227 13.4118 75.6818 14.864C75.6818 15.0615 75.586 15.4787 75.3873 15.5533L66.66 15.5341ZM72.072 14.2191L72.4103 14.1787C72.5499 14.1404 72.6497 14.0024 72.7088 13.8845C72.7883 13.176 72.6884 12.4908 72.6497 11.8015C72.6294 10.5267 71.9926 9.17232 70.6834 8.739C69.5138 8.32583 68.2035 8.73904 67.3925 9.64499C66.5805 10.6054 66.5805 11.9002 66.3809 13.1165C66.3809 13.432 66.2617 13.825 66.4603 14.081C66.6203 14.1596 66.819 14.2191 66.9983 14.2191H72.072ZM194.567 21.9221C193.536 21.3709 192.465 20.4891 191.893 19.4703C191.256 18.3124 190.922 17.0528 190.882 15.6601C190.882 13.2859 191.813 11.2432 193.302 9.45549C194.507 8.0618 196.056 7.33828 197.843 7.20022C199.904 7.18007 201.766 8.61306 202.622 10.4199C203.211 11.7333 203.541 13.146 203.593 14.5818C203.534 14.7582 203.573 14.9547 203.355 15.0726C202.877 15.1875 202.324 15.1522 201.806 15.1673H199.626L195.184 15.1875C194.906 15.2459 194.547 15.1673 194.392 15.4827C194.252 16.5449 194.351 17.7219 194.606 18.7226C194.906 19.8593 195.956 20.9819 197.146 21.2771C198.793 21.647 200.461 21.1744 201.492 19.7807C202.085 19.0168 202.403 18.1512 202.503 17.1908C202.543 17.0528 202.702 16.955 202.837 16.955C203.076 16.955 203.355 16.9187 203.493 17.1122C203.574 17.4266 203.474 17.7813 203.434 18.1159C203.136 19.7222 202.006 21.4142 200.382 22.0994C198.634 22.8633 196.275 22.6507 194.567 21.9221ZM196.772 13.8966C197.962 13.8764 199.171 13.9117 200.322 13.7938C200.617 13.6799 200.556 13.3252 200.617 13.0692C200.541 11.9123 200.556 10.7313 200.103 9.73165C199.705 8.92849 198.853 8.37727 197.981 8.25937C196.812 8.14146 195.737 8.69267 195.125 9.67217C194.607 10.7303 194.452 11.9315 194.352 13.168C194.373 13.4038 194.332 13.6799 194.566 13.8169C195.284 13.955 196.035 13.8371 196.772 13.8966ZM122.445 2.55561C122.17 2.00438 122.25 1.27983 122.564 0.792088C123.023 0.201561 123.774 -0.0947312 124.51 0.102783C125.064 0.240841 125.541 0.808242 125.721 1.33931C125.899 2.00441 125.76 2.75214 125.222 3.22375C124.749 3.65708 123.993 3.71249 123.4 3.46055C123.002 3.34265 122.604 2.94862 122.445 2.55561Z" fill="#211E1E"/>
</g>
</svg>
