<svg width="50" height="50" viewBox="0 0 50 50" fill="none" xmlns="http://www.w3.org/2000/svg">
    <path d="M26.5449 31.25C26.9764 31.25 27.3262 30.9002 27.3262 30.4688C27.3262 30.0373 26.9764 29.6875 26.5449 29.6875C26.1134 29.6875 25.7637 30.0373 25.7637 30.4688C25.7637 30.9002 26.1134 31.25 26.5449 31.25Z" fill="black"/>
    <path d="M26.5625 37.5C26.994 37.5 27.3438 37.1502 27.3438 36.7188C27.3438 36.2873 26.994 35.9375 26.5625 35.9375C26.131 35.9375 25.7812 36.2873 25.7812 36.7188C25.7812 37.1502 26.131 37.5 26.5625 37.5Z" fill="black"/>
    <path d="M41.3717 6.80147C41.3334 6.67714 41.2647 6.56433 41.1718 6.47328C41.0789 6.38223 40.9647 6.31582 40.8396 6.28008L32.0553 3.76953L31.1675 1.99404C31.1024 1.86457 31.0026 1.75578 30.8792 1.67989C30.7558 1.60399 30.6136 1.56398 30.4688 1.56436V1.5625H19.5312V1.56455C19.3863 1.56391 19.2441 1.6038 19.1206 1.67973C18.9971 1.75566 18.8973 1.86459 18.8325 1.99424L17.9447 3.76953L9.16016 6.28008C9.03508 6.31582 8.92091 6.38223 8.828 6.47328C8.73509 6.56433 8.66639 6.67714 8.62812 6.80147C8.59551 6.90762 7.81895 9.46807 7.03809 15.2271C5.74102 24.7949 5.46875 35.5938 5.46875 42.9688C5.46875 43.1759 5.55106 43.3747 5.69757 43.5212C5.84409 43.6677 6.0428 43.75 6.25 43.75H11.0254L10.9429 44.4382C10.9273 44.5676 10.9444 44.6988 10.9925 44.8199C11.0407 44.941 11.1183 45.0481 11.2185 45.1315C16.1054 49.2038 23.2232 48.4664 23.5231 48.4328C23.6715 48.4163 23.812 48.3577 23.928 48.2639C24.0441 48.1701 24.1308 48.045 24.178 47.9034L25 45.4395L25.8213 47.9035C25.8685 48.0451 25.9552 48.1702 26.0713 48.264C26.1874 48.3578 26.3279 48.4164 26.4762 48.4329C27.0178 48.4851 27.5618 48.5093 28.106 48.5056C30.5528 48.5056 35.2498 48.0746 38.7813 45.1316C38.8815 45.0482 38.9591 44.9411 39.0073 44.82C39.0554 44.6989 39.0725 44.5677 39.0569 44.4383L38.9746 43.75H43.75C43.9572 43.75 44.1559 43.6677 44.3024 43.5212C44.4489 43.3747 44.5312 43.1759 44.5312 42.9688C44.5312 35.5938 44.259 24.7949 42.9617 15.2271C42.1809 9.46807 41.4043 6.90762 41.3717 6.80147ZM30.6738 4.50059L33.2408 9.63447L31.0606 10.1796C30.9392 10.2099 30.8268 10.2691 30.7329 10.3519C30.6391 10.4348 30.5665 10.5391 30.5214 10.6558C30.4762 10.7726 30.4598 10.8986 30.4735 11.023C30.4872 11.1475 30.5306 11.2668 30.6001 11.371L31.8735 13.2812L25.5265 22.8019L30.6738 4.50059ZM28.998 4.6875H21.002L20.5625 3.125H29.4375L28.998 4.6875ZM28.5586 6.25L25 18.9025L21.4415 6.25H28.5586ZM19.3262 4.50059L24.1885 21.7881L24.0725 22.2007L18.1265 13.2812L19.4 11.3709C19.4695 11.2667 19.5129 11.1474 19.5266 11.0229C19.5403 10.8985 19.5239 10.7725 19.4787 10.6557C19.4336 10.539 19.361 10.4347 19.2672 10.3518C19.1733 10.269 19.0609 10.2099 18.9395 10.1795L16.7593 9.63437L19.3262 4.50059ZM7.03223 42.1875C7.07529 25.0457 8.52637 14.9414 9.4248 10.3165L13.2693 25.054L11.2131 42.1875H7.03223ZM13.5369 35.9375H17.9688V37.5H13.3496L13.5369 35.9375ZM22.8613 46.9141C21.2793 46.9932 16.2079 46.9978 12.5462 44.1927L12.6818 43.0619L13.1619 39.0625H18.75C18.9572 39.0625 19.1559 38.9802 19.3024 38.8337C19.4489 38.6872 19.5312 38.4884 19.5312 38.2812V35.1562C19.5312 34.9491 19.4489 34.7503 19.3024 34.6038C19.1559 34.4573 18.9572 34.375 18.75 34.375H13.7244L14.8382 25.0931C14.8499 24.9959 14.8433 24.8974 14.8187 24.8027L10.3236 7.57266L16.9968 5.66582L14.9265 9.80645C14.8741 9.91108 14.846 10.0261 14.8441 10.1431C14.8422 10.2601 14.8666 10.376 14.9154 10.4823C14.9643 10.5886 15.0365 10.6825 15.1265 10.7572C15.2166 10.8319 15.3222 10.8854 15.4357 10.9138L17.4853 11.4262L16.538 12.8475C16.4524 12.9758 16.4068 13.1266 16.4068 13.2809C16.4068 13.4351 16.4524 13.5859 16.538 13.7143L23.5156 24.1817L22.6855 27.1322C22.6661 27.2011 22.6563 27.2722 22.6562 27.3438V39.0625C22.6562 39.1619 22.6752 39.2604 22.7121 39.3526L24.1684 42.9931L22.8613 46.9141ZM27.1387 46.9141L25.7412 42.7217C25.7363 42.7069 25.729 42.6937 25.7233 42.6795L25.7254 42.6786L24.2188 38.912V27.5803L29.064 20.3125H34.375C34.5822 20.3125 34.7809 20.2302 34.9274 20.0837C35.0739 19.9372 35.1562 19.7385 35.1562 19.5312C35.1562 19.324 35.0739 19.1253 34.9274 18.9788C34.7809 18.8323 34.5822 18.75 34.375 18.75H30.1056L33.4625 13.7146C33.5481 13.5863 33.5937 13.4355 33.5937 13.2812C33.5937 13.127 33.5481 12.9762 33.4625 12.8479L32.5152 11.4266L34.5647 10.9142C34.6782 10.8858 34.7839 10.8323 34.874 10.7576C34.964 10.6829 35.0362 10.589 35.085 10.4827C35.1339 10.3764 35.1583 10.2605 35.1564 10.1435C35.1545 10.0265 35.1263 9.91147 35.074 9.80684L33.0037 5.66621L39.6769 7.57305L35.1815 24.8027C35.1569 24.8974 35.1503 24.9959 35.162 25.0931L36.2756 34.375H31.25C31.0428 34.375 30.8441 34.4573 30.6976 34.6038C30.5511 34.7503 30.4688 34.9491 30.4688 35.1562V38.2812C30.4688 38.4884 30.5511 38.6872 30.6976 38.8337C30.8441 38.9802 31.0428 39.0625 31.25 39.0625H36.8381L37.3181 43.0618L37.4537 44.1926C33.7915 46.9979 28.719 46.993 27.1387 46.9141ZM36.6504 37.5H32.0312V35.9375H36.4631L36.6504 37.5ZM38.7867 42.1875L36.7309 25.054L40.5767 10.3117C41.4746 14.9265 42.925 25.0147 42.9678 42.1875H38.7867Z" fill="black"/>
</svg>
