<svg width="50" height="50" viewBox="0 0 50 50" fill="none" xmlns="http://www.w3.org/2000/svg">
    <g clip-path="url(#clip0_759_368)">
        <path d="M47.5 26.6667H23.18C23.0083 26.181 22.6906 25.7602 22.2706 25.4618C21.8505 25.1635 21.3486 25.0022 20.8333 25.0001H18.3333C18.3318 24.5252 18.2282 24.0561 18.0295 23.6248C17.8308 23.1935 17.5416 22.8099 17.1817 22.5001C17.5428 22.1913 17.8328 21.8079 18.0316 21.3764C18.2304 20.9448 18.3334 20.4753 18.3334 20.0001C18.3334 19.5249 18.2304 19.0554 18.0316 18.6238C17.8328 18.1922 17.5428 17.8089 17.1817 17.5001C17.693 17.0558 18.0563 16.4658 18.2231 15.8093C18.3899 15.1527 18.3521 14.4609 18.1148 13.8265C17.8775 13.192 17.452 12.6451 16.8954 12.2592C16.3387 11.8732 15.6774 11.6665 15 11.6667H5.83333C5.15594 11.6665 4.49464 11.8732 3.93796 12.2592C3.38129 12.6451 2.95583 13.192 2.71853 13.8265C2.48124 14.4609 2.44345 15.1527 2.61022 15.8093C2.77699 16.4658 3.14035 17.0558 3.65167 17.5001C3.29038 17.8088 3.00029 18.1921 2.80139 18.6237C2.60248 19.0553 2.49948 19.5249 2.49948 20.0001C2.49948 20.4753 2.60248 20.9449 2.80139 21.3764C3.00029 21.808 3.29038 22.1914 3.65167 22.5001C3.06089 22.9998 2.66716 23.6933 2.5409 24.4567C2.41463 25.2201 2.56408 26.0035 2.9625 26.6667H2.5C1.83696 26.6667 1.20107 26.9301 0.732233 27.399C0.263392 27.8678 0 28.5037 0 29.1667L0 30.8334C0.00213581 31.3486 0.163403 31.8506 0.46174 32.2707C0.760076 32.6907 1.18091 33.0083 1.66667 33.1801V48.3334C1.66667 48.7754 1.84226 49.1994 2.15482 49.5119C2.46738 49.8245 2.89131 50.0001 3.33333 50.0001H5.83333C6.27536 50.0001 6.69928 49.8245 7.01184 49.5119C7.3244 49.1994 7.5 48.7754 7.5 48.3334V33.3334H10V39.1667C10 39.8298 10.2634 40.4657 10.7322 40.9345C11.2011 41.4034 11.837 41.6667 12.5 41.6667H20.8333C21.4964 41.6667 22.1323 41.4034 22.6011 40.9345C23.0699 40.4657 23.3333 39.8298 23.3333 39.1667V33.3334H42.5V48.3334C42.5 48.7754 42.6756 49.1994 42.9882 49.5119C43.3007 49.8245 43.7246 50.0001 44.1667 50.0001H46.6667C47.1087 50.0001 47.5326 49.8245 47.8452 49.5119C48.1577 49.1994 48.3333 48.7754 48.3333 48.3334V33.1801C48.8191 33.0083 49.2399 32.6907 49.5383 32.2707C49.8366 31.8506 49.9979 31.3486 50 30.8334V29.1667C50 28.5037 49.7366 27.8678 49.2678 27.399C48.7989 26.9301 48.163 26.6667 47.5 26.6667ZM5.83333 13.3334H15C15.442 13.3334 15.8659 13.509 16.1785 13.8216C16.4911 14.1341 16.6667 14.5581 16.6667 15.0001C16.6667 15.4421 16.4911 15.866 16.1785 16.1786C15.8659 16.4912 15.442 16.6667 15 16.6667H5.83333C5.39131 16.6667 4.96738 16.4912 4.65482 16.1786C4.34226 15.866 4.16667 15.4421 4.16667 15.0001C4.16667 14.5581 4.34226 14.1341 4.65482 13.8216C4.96738 13.509 5.39131 13.3334 5.83333 13.3334ZM5.83333 18.3334H15C15.442 18.3334 15.8659 18.509 16.1785 18.8216C16.4911 19.1341 16.6667 19.5581 16.6667 20.0001C16.6667 20.4421 16.4911 20.866 16.1785 21.1786C15.8659 21.4912 15.442 21.6667 15 21.6667H5.83333C5.39131 21.6667 4.96738 21.4912 4.65482 21.1786C4.34226 20.866 4.16667 20.4421 4.16667 20.0001C4.16667 19.5581 4.34226 19.1341 4.65482 18.8216C4.96738 18.509 5.39131 18.3334 5.83333 18.3334ZM5.83333 48.3334H3.33333V33.3334H5.83333V48.3334ZM10 31.6667H2.5C2.27899 31.6667 2.06702 31.579 1.91074 31.4227C1.75446 31.2664 1.66667 31.0544 1.66667 30.8334V29.1667C1.66667 28.9457 1.75446 28.7338 1.91074 28.5775C2.06702 28.4212 2.27899 28.3334 2.5 28.3334H10V31.6667ZM10.1533 26.6667H5.83333C5.39131 26.6667 4.96738 26.4912 4.65482 26.1786C4.34226 25.866 4.16667 25.4421 4.16667 25.0001C4.16667 24.5581 4.34226 24.1341 4.65482 23.8216C4.96738 23.509 5.39131 23.3334 5.83333 23.3334H15C15.442 23.3334 15.8659 23.509 16.1785 23.8216C16.4911 24.1341 16.6667 24.5581 16.6667 25.0001H12.5C11.9848 25.0022 11.4828 25.1635 11.0628 25.4618C10.6427 25.7602 10.3251 26.181 10.1533 26.6667ZM21.6667 39.1667C21.6667 39.3878 21.5789 39.5997 21.4226 39.756C21.2663 39.9123 21.0543 40.0001 20.8333 40.0001H20V37.5001C20 37.2791 19.9122 37.0671 19.7559 36.9108C19.5996 36.7545 19.3877 36.6667 19.1667 36.6667C18.9457 36.6667 18.7337 36.7545 18.5774 36.9108C18.4211 37.0671 18.3333 37.2791 18.3333 37.5001V40.0001H15V34.1667C15 33.9457 14.9122 33.7338 14.7559 33.5775C14.5996 33.4212 14.3877 33.3334 14.1667 33.3334C13.9457 33.3334 13.7337 33.4212 13.5774 33.5775C13.4211 33.7338 13.3333 33.9457 13.3333 34.1667V40.0001H12.5C12.279 40.0001 12.067 39.9123 11.9107 39.756C11.7545 39.5997 11.6667 39.3878 11.6667 39.1667V27.5001C11.6667 27.2791 11.7545 27.0671 11.9107 26.9108C12.067 26.7545 12.279 26.6667 12.5 26.6667H20.8333C21.0543 26.6667 21.2663 26.7545 21.4226 26.9108C21.5789 27.0671 21.6667 27.2791 21.6667 27.5001V39.1667ZM46.6667 48.3334H44.1667V33.3334H46.6667V48.3334ZM48.3333 30.8334C48.3333 31.0544 48.2455 31.2664 48.0893 31.4227C47.933 31.579 47.721 31.6667 47.5 31.6667H23.3333V28.3334H47.5C47.721 28.3334 47.933 28.4212 48.0893 28.5775C48.2455 28.7338 48.3333 28.9457 48.3333 29.1667V30.8334Z" fill="black"/>
        <path d="M47.5 1.66663C46.9848 1.66877 46.4828 1.83004 46.0628 2.12837C45.6427 2.42671 45.3251 2.84754 45.1533 3.3333H41.6908C41.5415 2.55244 41.1682 1.8319 40.6164 1.25955C40.0646 0.687205 39.3582 0.287773 38.5833 0.109965C38.0398 -0.0193553 37.4757 -0.0380294 36.9248 0.0550537C36.3739 0.148137 35.8473 0.351076 35.3764 0.651798C34.9055 0.952521 34.4999 1.34488 34.1837 1.80555C33.8675 2.26621 33.6472 2.78576 33.5358 3.3333H32.6392C32.4489 2.39214 31.9389 1.54579 31.1957 0.937813C30.4525 0.329836 29.5219 -0.00232672 28.5617 -0.00232672C27.6015 -0.00232672 26.6708 0.329836 25.9276 0.937813C25.1844 1.54579 24.6744 2.39214 24.4842 3.3333H4.84667C4.65099 2.77773 4.26499 2.30934 3.75706 2.0111C3.24913 1.71285 2.65203 1.604 2.07152 1.70381C1.49102 1.80362 0.96457 2.10566 0.58542 2.55643C0.206271 3.0072 -0.00111162 3.57761 4.48163e-06 4.16663V7.49997C-0.00111162 8.08899 0.206271 8.6594 0.58542 9.11017C0.96457 9.56094 1.49102 9.86298 2.07152 9.96279C2.65203 10.0626 3.24913 9.95374 3.75706 9.6555C4.26499 9.35725 4.65099 8.88887 4.84667 8.3333H28.0575C27.7856 9.00975 27.6733 9.73974 27.7292 10.4666L21.1583 16.4908C20.7872 16.8312 20.5275 17.2757 20.4132 17.7662C20.299 18.2567 20.3356 18.7703 20.5181 19.2396C20.7007 19.709 21.0208 20.1122 21.4364 20.3966C21.8521 20.681 22.3439 20.8332 22.8475 20.8333H43.3333C43.8369 20.8332 44.3288 20.681 44.7444 20.3966C45.1601 20.1122 45.4801 19.709 45.6627 19.2396C45.8453 18.7703 45.8818 18.2567 45.7676 17.7662C45.6534 17.2757 45.3937 16.8312 45.0225 16.4908L38.4483 10.4666V9.9358C38.4567 9.34413 38.6792 8.77497 39.0742 8.3333H45.1533C45.349 8.88887 45.735 9.35725 46.2429 9.6555C46.7509 9.95374 47.348 10.0626 47.9285 9.96279C48.509 9.86298 49.0354 9.56094 49.4146 9.11017C49.7937 8.6594 50.0011 8.08899 50 7.49997V4.16663C50 3.50359 49.7366 2.86771 49.2678 2.39887C48.7989 1.93002 48.163 1.66663 47.5 1.66663ZM3.33334 7.49997C3.33334 7.72098 3.24554 7.93294 3.08926 8.08922C2.93298 8.2455 2.72102 8.3333 2.5 8.3333C2.27899 8.3333 2.06703 8.2455 1.91075 8.08922C1.75447 7.93294 1.66667 7.72098 1.66667 7.49997V4.16663C1.66667 3.94562 1.75447 3.73366 1.91075 3.57738C2.06703 3.4211 2.27899 3.3333 2.5 3.3333C2.72102 3.3333 2.93298 3.4211 3.08926 3.57738C3.24554 3.73366 3.33334 3.94562 3.33334 4.16663V7.49997ZM30.9225 3.3333H26.2208C26.3919 2.84635 26.7099 2.42454 27.1311 2.12613C27.5522 1.82773 28.0555 1.66746 28.5717 1.66746C29.0878 1.66746 29.5912 1.82773 30.0123 2.12613C30.4334 2.42454 30.7514 2.84635 30.9225 3.3333ZM37.1092 8.3333C36.8375 9.00979 36.7254 9.7398 36.7817 10.4666L33.0892 13.8516L29.3958 10.4666V9.9358C29.4042 9.34413 29.6275 8.77413 30.0225 8.3333H37.1092ZM5 6.66663V4.99997H30.9167C30.5575 6.02663 29.8658 6.24997 29.3408 6.66663H5ZM29.5475 19.1666H22.8475C22.6796 19.1667 22.5156 19.116 22.377 19.0212C22.2384 18.9264 22.1317 18.792 22.0708 18.6355C22.0099 18.4791 21.9977 18.3079 22.0358 18.1443C22.0739 17.9808 22.1604 17.8326 22.2842 17.7191L28.5625 11.9633L31.8558 14.9816L30.21 16.4908C29.8471 16.8212 29.5905 17.2518 29.4726 17.7281C29.3546 18.2045 29.3807 18.7051 29.5475 19.1666ZM34.2783 19.1666H31.8992C31.7313 19.1665 31.5675 19.1157 31.429 19.0208C31.2906 18.926 31.184 18.7916 31.1232 18.6351C31.0624 18.4787 31.0502 18.3076 31.0883 18.1441C31.1264 17.9807 31.213 17.8326 31.3367 17.7191L33.0867 16.1125L34.8367 17.7191C34.9601 17.8323 35.0466 17.9801 35.0848 18.1431C35.123 18.3062 35.1112 18.477 35.0509 18.6332C34.9907 18.7895 34.8847 18.9239 34.7469 19.0191C34.6091 19.1142 34.4458 19.1657 34.2783 19.1666ZM43.8933 17.7191C44.0169 17.8324 44.1034 17.9803 44.1415 18.1435C44.1797 18.3067 44.1678 18.4777 44.1073 18.634C44.0468 18.7903 43.9406 18.9248 43.8025 19.0198C43.6645 19.1148 43.5009 19.166 43.3333 19.1666H36.6308C36.7969 18.7047 36.8222 18.2039 36.7035 17.7276C36.5849 17.2512 36.3276 16.8208 35.9642 16.4908L34.3192 14.9825L37.6117 11.9633L43.8933 17.7191ZM38.3908 6.66663H31.8792C32.2494 6.17343 32.5056 5.60418 32.6292 4.99997H39.9625C39.6083 6.02663 38.9167 6.24997 38.3908 6.66663ZM35.2733 3.3333C35.4442 2.84626 35.7621 2.42432 36.1832 2.12581C36.6042 1.8273 37.1076 1.66696 37.6238 1.66696C38.1399 1.66696 38.6433 1.8273 39.0643 2.12581C39.4854 2.42432 39.8033 2.84626 39.9742 3.3333H35.2733ZM45 6.66663H40.9308C41.3014 6.17361 41.5576 5.60429 41.6808 4.99997H45V6.66663ZM48.3333 7.49997C48.3333 7.72098 48.2455 7.93294 48.0893 8.08922C47.933 8.2455 47.721 8.3333 47.5 8.3333C47.279 8.3333 47.067 8.2455 46.9107 8.08922C46.7545 7.93294 46.6667 7.72098 46.6667 7.49997V4.16663C46.6667 3.94562 46.7545 3.73366 46.9107 3.57738C47.067 3.4211 47.279 3.3333 47.5 3.3333C47.721 3.3333 47.933 3.4211 48.0893 3.57738C48.2455 3.73366 48.3333 3.94562 48.3333 4.16663V7.49997Z" fill="black"/>
    </g>
    <defs>
        <clipPath id="clip0_759_368">
            <rect width="50" height="50" fill="white"/>
        </clipPath>
    </defs>
</svg>
