<svg width="50" height="50" viewBox="0 0 50 50" fill="none" xmlns="http://www.w3.org/2000/svg">
    <path d="M3.33398 37.3334H5.00065V42.3334H3.33398V37.3334ZM6.66732 37.3334H8.33398V39H6.66732V37.3334ZM6.66732 40.6667H8.33398V42.3334H6.66732V40.6667ZM18.7986 17.1308C20.4687 17.7988 22.6713 18.1667 25.0007 18.1667C27.33 18.1667 29.5326 17.7988 31.2027 17.1308C33.1145 16.3661 34.1673 15.2543 34.1673 14C34.1673 12.7458 33.1145 11.634 31.2027 10.8693C29.5326 10.2013 27.33 9.83337 25.0007 9.83337C22.6713 9.83337 20.4687 10.2013 18.7986 10.8693C16.8868 11.634 15.834 12.7458 15.834 14C15.834 15.2543 16.8868 16.3661 18.7986 17.1308ZM25.0007 11.5C29.579 11.5 32.5007 12.9807 32.5007 14C32.5007 15.0194 29.579 16.5 25.0007 16.5C20.4223 16.5 17.5007 15.0194 17.5007 14C17.5007 12.9807 20.4223 11.5 25.0007 11.5Z" fill="black"/>
    <path d="M43.3333 22.3333H42.5V14C42.5 11.2338 40.613 8.6725 37.1867 6.78802C33.9178 4.9901 29.5898 4 25 4C20.4102 4 16.0822 4.98958 12.8133 6.78802C9.38698 8.6725 7.5 11.2338 7.5 14V25.6667C7.5 28.4329 9.38698 30.9942 12.8133 32.8786C13.6014 33.309 14.4185 33.6837 15.2589 34H0.833333C0.61232 34 0.400358 34.0878 0.244078 34.2441C0.0877973 34.4004 0 34.6123 0 34.8333V44.8333C0 45.0543 0.0877973 45.2663 0.244078 45.4226C0.400358 45.5789 0.61232 45.6667 0.833333 45.6667H43.3333C45.1008 45.6647 46.7954 44.9617 48.0452 43.7119C49.295 42.462 49.998 40.7675 50 39V29C49.998 27.2325 49.295 25.538 48.0452 24.2881C46.7954 23.0383 45.1008 22.3353 43.3333 22.3333ZM10 44H1.66667V35.6667H10V44ZM40.8333 22.3333H34.7411C35.5815 22.017 36.3986 21.6423 37.1867 21.212C38.7222 20.3675 39.9471 19.3867 40.8333 18.3128V22.3333ZM13.6166 8.24833C16.6434 6.58333 20.6862 5.66667 25 5.66667C29.3137 5.66667 33.3566 6.58333 36.3834 8.24833C39.253 9.82667 40.8333 11.8692 40.8333 14C40.8333 16.1308 39.253 18.1733 36.3834 19.7517C33.3566 21.4167 29.3137 22.3333 25 22.3333C20.6862 22.3333 16.6434 21.4167 13.6166 19.7517C10.747 18.1733 9.16667 16.1308 9.16667 14C9.16667 11.8692 10.747 9.82667 13.6166 8.24833ZM13.6166 31.4183C10.747 29.84 9.16667 27.7974 9.16667 25.6667V18.3125C10.0521 19.3864 11.2778 20.3672 12.8133 21.2117C13.2462 21.4498 13.6974 21.6735 14.1667 21.8827V25.6667H15.8333V22.5428C16.6533 22.8268 17.4878 23.0667 18.3333 23.2616V25.6667H20V23.5938C20.8286 23.7316 21.6627 23.8339 22.5 23.9005V29H24.1667V23.989C24.4433 23.9959 24.7211 23.9996 25 24H26.6667V25.6667H28.3333V24H30.8333V25.6667H32.5V24H35V29H36.6667V24H39.1667V25.6667H40.8333V24H43.3333V25.6667H45V24.2867C46.1115 24.6802 47.0482 25.4539 47.6446 26.471C48.241 27.4882 48.4587 28.6834 48.2593 29.8456C48.0599 31.0077 47.4562 32.062 46.5548 32.8222C45.6535 33.5824 44.5125 33.9995 43.3333 34H25C20.6862 34 16.6434 33.0833 13.6166 31.4183ZM48.3333 39C48.3318 40.3256 47.8045 41.5965 46.8672 42.5339C45.9298 43.4712 44.659 43.9985 43.3333 44H11.6667V35.6667H14.1667V37.3333H15.8333V35.6667H18.3333V37.3333H20V35.6667H22.5V40.6667H24.1667V35.6667H26.6667V37.3333H28.3333V35.6667H30.8333V37.3333H32.5V35.6667H35V40.6667H36.6667V35.6667H39.1667V37.3333H40.8333V35.6667H43.3333V37.3333H45V35.4557C46.2914 35.1199 47.4524 34.4047 48.3333 33.4025V39Z" fill="black"/>
</svg>
