<svg width="50" height="50" viewBox="0 0 50 50" fill="none" xmlns="http://www.w3.org/2000/svg">
    <g clip-path="url(#clip0_759_394)">
        <path d="M23.3341 15.6667C22.3335 15.0751 21.5016 14.2366 20.918 13.2314C20.3344 12.2262 20.0185 11.088 20.0007 9.92583V1.66667C20.0007 1.22464 19.8251 0.800716 19.5126 0.488155C19.2 0.175595 18.7761 0 18.3341 0L9.95657 0C9.61188 0.00130887 9.27598 0.108928 8.99471 0.308175C8.71344 0.507423 8.50048 0.788595 8.3849 1.11333C7.6674 3.12417 6.14823 9.485 7.50073 25.0717C8.8199 40.2383 9.61823 46.5583 9.8999 48.5717C10.0207 49.3917 10.7249 50 11.5532 50H20.0057C20.445 50 20.8666 49.8266 21.1787 49.5175C21.4908 49.2083 21.6682 48.7884 21.6724 48.3492C21.8457 28.735 24.1424 17.69 24.1424 17.395C24.2008 17.0588 24.1546 16.7128 24.01 16.4037C23.8655 16.0946 23.6295 15.8374 23.3341 15.6667ZM20.0007 48.3333L11.5491 48.3392C11.2691 46.3392 10.4749 40.0575 9.15907 24.9283C7.7999 9.23833 9.42407 3.16083 9.95657 1.66667H18.3341V9.925C18.3551 11.3799 18.7493 12.805 19.4788 14.0639C20.2084 15.3228 21.2489 16.3734 22.5007 17.115C20.1924 29.9433 20.0116 47.5892 20.0057 48.3333H20.0007Z" fill="black"/>
        <path d="M12.8428 37.5C12.9517 37.4891 13.0573 37.4568 13.1537 37.405C13.2502 37.3532 13.3354 37.283 13.4047 37.1982C13.4739 37.1135 13.5258 37.0159 13.5574 36.9112C13.5889 36.8064 13.5996 36.6964 13.5886 36.5875C13.4386 35.0975 13.2803 33.4408 13.1061 31.5925C13.0853 31.3724 12.978 31.1695 12.8076 31.0285C12.6373 30.8876 12.4179 30.8201 12.1978 30.8408C11.9776 30.8616 11.7748 30.969 11.6338 31.1393C11.4929 31.3097 11.4253 31.529 11.4461 31.7492C11.6219 33.6008 11.7794 35.2608 11.9303 36.7542C11.9412 36.8631 11.9735 36.9687 12.0253 37.0651C12.0771 37.1615 12.1473 37.2468 12.2321 37.3161C12.3168 37.3853 12.4143 37.4372 12.5191 37.4688C12.6239 37.5003 12.7339 37.5109 12.8428 37.5ZM11.2336 19.1667C11.3463 19.1668 11.4578 19.144 11.5614 19.0998C11.665 19.0556 11.7586 18.9909 11.8365 18.9095C11.9144 18.8281 11.975 18.7317 12.0146 18.6263C12.0542 18.5208 12.072 18.4084 12.0669 18.2958C11.9894 16.5642 11.9586 14.8975 11.9761 13.3425C11.9785 13.1215 11.8931 12.9086 11.7385 12.7506C11.5839 12.5926 11.373 12.5024 11.1519 12.5C11.0425 12.4988 10.9339 12.5192 10.8323 12.5599C10.7308 12.6007 10.6382 12.6611 10.56 12.7376C10.402 12.8922 10.3119 13.1032 10.3094 13.3242C10.2919 14.9075 10.3228 16.6083 10.4019 18.3708C10.4116 18.585 10.5034 18.7872 10.6583 18.9354C10.8132 19.0836 11.0192 19.1665 11.2336 19.1667ZM13.0978 40.0042C12.9888 40.0155 12.8831 40.0482 12.7868 40.1004C12.6905 40.1527 12.6054 40.2234 12.5364 40.3085C12.4674 40.3937 12.416 40.4916 12.3849 40.5966C12.3538 40.7017 12.3437 40.8119 12.3553 40.9208C12.5811 43.0942 12.7719 44.7333 12.9244 45.9375C12.9565 46.1527 13.0715 46.3469 13.2449 46.4784C13.4182 46.61 13.6361 46.6685 13.852 46.6415C14.0679 46.6145 14.2647 46.5041 14.4004 46.334C14.536 46.1638 14.5996 45.9473 14.5778 45.7308C14.3721 44.0717 14.1838 42.4105 14.0128 40.7475C14.0023 40.6383 13.9702 40.5323 13.9184 40.4356C13.8665 40.3389 13.796 40.2535 13.7108 40.1843C13.6257 40.1152 13.5276 40.0636 13.4224 40.0327C13.3171 40.0018 13.2068 39.9921 13.0978 40.0042ZM11.2136 10C11.3228 10.0071 11.4324 9.99267 11.536 9.95745C11.6396 9.92223 11.7353 9.86694 11.8176 9.79474C11.8998 9.72254 11.9671 9.63484 12.0154 9.53666C12.0638 9.43847 12.0923 9.33172 12.0994 9.2225C12.1919 7.58167 12.3903 5.94833 12.6928 4.33333C12.737 4.11674 12.6933 3.89146 12.5714 3.70705C12.4495 3.52264 12.2594 3.3942 12.0428 3.35C11.8262 3.3058 11.6009 3.34945 11.4165 3.47135C11.2321 3.59324 11.1036 3.78341 11.0594 4C10.7413 5.68777 10.5331 7.39442 10.4361 9.10917C10.4283 9.21879 10.4422 9.32887 10.4771 9.43308C10.5121 9.53729 10.5672 9.63356 10.6395 9.71636C10.7118 9.79916 10.7997 9.86685 10.8982 9.91553C10.9967 9.96421 11.1039 9.99292 11.2136 10ZM11.9786 28.3333C12.1983 28.3122 12.4007 28.2048 12.5413 28.0347C12.6819 27.8646 12.7493 27.6456 12.7286 27.4258C12.5714 25.767 12.4305 24.1066 12.3061 22.445C12.2906 22.224 12.188 22.0182 12.0208 21.8728C11.8536 21.7275 11.6355 21.6545 11.4144 21.67C11.1934 21.6855 10.9876 21.7881 10.8423 21.9553C10.6969 22.1225 10.624 22.3407 10.6394 22.5617C10.7386 23.9692 10.9353 26.1808 11.0661 27.5808C11.0762 27.6903 11.1079 27.7967 11.1593 27.8939C11.2108 27.991 11.2809 28.0771 11.3657 28.147C11.4505 28.217 11.5484 28.2695 11.6535 28.3014C11.7587 28.3334 11.8692 28.3442 11.9786 28.3333ZM40.0453 0H31.6678C31.2257 0 30.8018 0.175595 30.4893 0.488155C30.1767 0.800716 30.0011 1.22464 30.0011 1.66667V9.925C29.9835 11.0873 29.6677 12.2257 29.084 13.231C28.5004 14.2364 27.6684 15.075 26.6678 15.6667C26.3726 15.8378 26.1371 16.0953 25.993 16.4046C25.8489 16.7138 25.8031 17.0598 25.8619 17.3958C25.8619 17.5333 28.1611 29.005 28.3319 48.3492C28.3359 48.7886 28.5132 49.2087 28.8254 49.518C29.1375 49.8273 29.5592 50.0009 29.9986 50.0008H38.4486C38.8494 50 39.2366 49.8551 39.5395 49.5926C39.8424 49.3301 40.0408 48.9675 40.0986 48.5708C40.3811 46.5592 41.1819 40.2417 42.4978 25.0708C43.8536 9.48167 42.3311 3.1225 41.6169 1.11333C41.5016 0.788461 41.2887 0.507153 41.0074 0.307873C40.726 0.108593 40.39 0.00106774 40.0453 0ZM40.8344 24.9283C39.5228 40.0567 38.7286 46.34 38.4486 48.3333H29.9969C29.9903 47.5892 29.8094 29.93 27.5011 17.1C26.3886 17.3 26.4178 17.295 27.5269 17.0933C28.7732 16.3531 29.8085 15.3051 30.5335 14.0499C31.2586 12.7948 31.6491 11.3744 31.6678 9.925V1.66667L40.0469 1.6725C40.5769 3.16083 42.2028 9.23583 40.8344 24.9283Z" fill="black"/>
        <path d="M37.8048 30.8334C37.6958 30.8222 37.5857 30.8329 37.4808 30.8646C37.3759 30.8964 37.2784 30.9487 37.1939 31.0185C37.1094 31.0883 37.0396 31.1741 36.9885 31.2711C36.9375 31.3681 36.9062 31.4742 36.8965 31.5834C36.7223 33.4317 36.5632 35.0884 36.414 36.5784C36.3919 36.7983 36.4581 37.018 36.5979 37.1891C36.7378 37.3602 36.9399 37.4688 37.1598 37.4909C37.3798 37.513 37.5994 37.4468 37.7706 37.3069C37.9417 37.1671 38.0502 36.965 38.0723 36.745C38.2223 35.2517 38.3807 33.5917 38.5565 31.74C38.5769 31.5202 38.5092 31.3012 38.3683 31.1312C38.2273 30.9612 38.0247 30.8541 37.8048 30.8334ZM38.8507 12.5C38.7412 12.5012 38.6331 12.524 38.5325 12.567C38.4318 12.61 38.3406 12.6723 38.2641 12.7506C38.1876 12.8288 38.1272 12.9214 38.0864 13.0229C38.0457 13.1245 38.0253 13.2331 38.0265 13.3425C38.044 14.8975 38.0132 16.5642 37.9357 18.2959C37.9257 18.5169 38.004 18.7328 38.1532 18.8961C38.3025 19.0594 38.5105 19.1568 38.7315 19.1667C38.9525 19.1767 39.1684 19.0984 39.3317 18.9491C39.4951 18.7999 39.5924 18.5919 39.6023 18.3709C39.6815 16.6084 39.7123 14.91 39.6948 13.3242C39.6953 13.2141 39.6737 13.1051 39.6312 13.0036C39.5887 12.902 39.5262 12.8101 39.4474 12.7332C39.3687 12.6563 39.2753 12.5961 39.1727 12.556C39.0702 12.5159 38.9607 12.4969 38.8507 12.5ZM36.9048 40.0042C36.7957 39.9914 36.685 40.0006 36.5795 40.0312C36.4739 40.0617 36.3755 40.1131 36.2901 40.1823C36.2047 40.2515 36.1339 40.3371 36.0821 40.434C36.0303 40.5309 35.9983 40.6373 35.9882 40.7467C35.8167 42.4097 35.6284 44.0709 35.4232 45.73C35.4068 45.8399 35.4125 45.952 35.4401 46.0596C35.4676 46.1672 35.5164 46.2682 35.5836 46.3567C35.6508 46.4452 35.7349 46.5194 35.8312 46.5749C35.9274 46.6304 36.0338 46.6661 36.144 46.6798C36.2543 46.6936 36.3661 46.6852 36.4731 46.6551C36.58 46.625 36.6799 46.5739 36.7668 46.5046C36.8536 46.4354 36.9258 46.3495 36.979 46.252C37.0322 46.1544 37.0653 46.0472 37.0765 45.9367C37.2273 44.7325 37.4198 43.0934 37.6457 40.92C37.6688 40.7004 37.6037 40.4805 37.4648 40.3088C37.3259 40.1371 37.1245 40.0275 36.9048 40.0042ZM38.734 10C38.8482 10.0003 38.9611 9.97707 39.0659 9.93185C39.1707 9.88662 39.2651 9.82035 39.3433 9.73713C39.4214 9.65392 39.4816 9.55554 39.5202 9.4481C39.5587 9.34066 39.5748 9.22645 39.5673 9.11254C39.4698 7.39669 39.2613 5.68895 38.9432 4.00004C38.8935 3.78977 38.7642 3.607 38.5824 3.49026C38.4006 3.37353 38.1806 3.33197 37.9687 3.37434C37.7568 3.41671 37.5697 3.5397 37.4468 3.71738C37.3239 3.89505 37.2748 4.11352 37.3098 4.32671C37.6123 5.94254 37.8107 7.57671 37.9032 9.21754C37.9161 9.4292 38.0092 9.62796 38.1636 9.77334C38.318 9.91873 38.522 9.9998 38.734 10ZM38.5848 21.6667C38.4756 21.659 38.3659 21.6729 38.2621 21.7076C38.1582 21.7423 38.0622 21.7971 37.9796 21.8689C37.8969 21.9408 37.8292 22.0282 37.7804 22.1262C37.7315 22.2241 37.7025 22.3308 37.6948 22.44C37.5948 23.8767 37.4057 25.985 37.2723 27.4209C37.26 27.5309 37.2698 27.6423 37.301 27.7485C37.3322 27.8547 37.3843 27.9536 37.4542 28.0395C37.5241 28.1254 37.6104 28.1964 37.708 28.2486C37.8057 28.3007 37.9128 28.3329 38.023 28.3432C38.1332 28.3535 38.2444 28.3417 38.35 28.3086C38.4557 28.2754 38.5536 28.2215 38.6382 28.1501C38.7228 28.0787 38.7923 27.9911 38.8427 27.8925C38.893 27.7939 38.9232 27.6863 38.9315 27.5759C39.0682 26.1084 39.2557 24.0225 39.3582 22.5567C39.3659 22.4475 39.352 22.3378 39.3173 22.234C39.2826 22.1301 39.2278 22.0341 39.156 21.9514C39.0841 21.8688 38.9967 21.8011 38.8987 21.7522C38.8007 21.7034 38.6941 21.6743 38.5848 21.6667Z" fill="black"/>
    </g>
    <defs>
        <clipPath id="clip0_759_394">
            <rect width="50" height="50" fill="white"/>
        </clipPath>
    </defs>
</svg>
