<svg width="50" height="50" viewBox="0 0 50 50" fill="none" xmlns="http://www.w3.org/2000/svg">
    <path d="M8.70449 36.2451C8.73061 36.1391 8.73533 36.0291 8.71836 35.9213C8.7014 35.8136 8.6631 35.7103 8.6057 35.6175C8.5483 35.5247 8.47296 35.4444 8.3841 35.3811C8.29524 35.3178 8.19465 35.2729 8.08821 35.249C7.98177 35.2251 7.87164 35.2227 7.76426 35.2419C7.65688 35.2612 7.55442 35.3016 7.46287 35.3609C7.37133 35.4203 7.29255 35.4973 7.23116 35.5874C7.16976 35.6776 7.12697 35.7791 7.10531 35.886C6.15203 40.141 10.1488 43.35 14.1824 41.6647C14.383 41.5809 14.5422 41.4208 14.6248 41.2197C14.7074 41.0186 14.7067 40.7928 14.6229 40.5922C14.5391 40.3915 14.3791 40.2324 14.1779 40.1498C13.9768 40.0671 13.751 40.0678 13.5504 40.1516C10.7381 41.3262 8.04384 39.1967 8.70449 36.2451Z" fill="black"/>
    <path d="M2.86917 26.2295H4.5036C4.48065 29.1205 4.2995 31.768 3.1577 34.3893C1.76016 37.6336 -0.383286 41.0516 0.97573 44.8303C1.27557 45.7047 1.76128 46.5037 2.39943 47.1725C3.03759 47.8412 3.81305 48.3637 4.67245 48.7041C6.2118 49.191 7.83393 49.3607 9.4413 49.2049C10.7175 49.1664 4.12573 49.1803 41.0413 49.1803C45.0257 49.1803 49.6651 47.2705 48.7315 43.3803C48.2577 41.4344 46.6462 40.3393 43.9388 40.1254C35.6556 39.3491 27.9402 35.5768 22.2405 29.5164C21.3834 28.582 20.7647 27.4544 20.4372 26.2295H21.7216C22.3738 26.2295 22.9993 25.9704 23.4604 25.5093C23.9216 25.0481 24.1806 24.4227 24.1806 23.7705V18.8525H25.9364C26.1359 19.6251 26.6103 20.2985 27.2708 20.7464C27.9313 21.1943 28.7324 21.3859 29.5241 21.2853C30.3157 21.1848 31.0435 20.799 31.5711 20.2002C32.0986 19.6014 32.3897 18.8308 32.3897 18.0328C32.3897 17.2348 32.0986 16.4642 31.5711 15.8654C31.0435 15.2666 30.3157 14.8808 29.5241 14.7802C28.7324 14.6797 27.9313 14.8713 27.2708 15.3192C26.6103 15.7671 26.1359 16.4404 25.9364 17.2131H24.1806V2.45902C24.1806 1.80684 23.9216 1.18138 23.4604 0.720229C22.9993 0.259074 22.3738 0 21.7216 0L2.86917 0C2.217 0 1.59154 0.259074 1.13039 0.720229C0.66923 1.18138 0.410156 1.80684 0.410156 2.45902L0.410156 23.7705C0.410156 24.4227 0.66923 25.0481 1.13039 25.5093C1.59154 25.9704 2.217 26.2295 2.86917 26.2295ZM29.0987 16.3934C29.5335 16.3934 29.9504 16.5662 30.2579 16.8736C30.5653 17.181 30.738 17.598 30.738 18.0328C30.738 18.4676 30.5653 18.8845 30.2579 19.192C29.9504 19.4994 29.5335 19.6721 29.0987 19.6721C28.6639 19.6721 28.2469 19.4994 27.9395 19.192C27.6321 18.8845 27.4593 18.4676 27.4593 18.0328C27.4593 17.598 27.6321 17.181 27.9395 16.8736C28.2469 16.5662 28.6639 16.3934 29.0987 16.3934ZM20.8569 30.4221C23.9431 33.7377 27.6201 36.4493 31.6995 38.418C35.4903 40.286 39.6003 41.4198 43.8126 41.7598C46.4052 41.9648 46.952 43.0041 47.138 43.7656C47.2508 44.3207 47.1628 44.8978 46.8897 45.394C46.6166 45.8903 46.1763 46.2735 45.647 46.4754C44.2186 47.1925 42.6395 47.5578 41.0413 47.541C7.51671 47.541 10.611 47.5295 9.38803 47.5664C7.99704 47.7082 6.5913 47.5746 5.25196 47.1721C4.61436 46.9152 4.03991 46.5234 3.56805 46.0235C3.09618 45.5236 2.73809 44.9276 2.51835 44.2762C1.59868 41.7213 2.78721 39.0729 3.94704 36.6066C4.85447 34.8833 5.47936 33.0255 5.79786 31.1041C10.5487 32.4754 16.861 32.1861 20.8569 30.4221ZM6.00688 29.4557C6.10032 28.4033 6.13475 27.3311 6.14294 26.2295H18.7347C18.9691 27.2275 19.3521 28.1846 19.8708 29.0689C16.1626 30.5738 10.2716 30.7656 6.00688 29.4557ZM2.0495 2.45902C2.0495 2.24163 2.13586 2.03314 2.28958 1.87942C2.4433 1.7257 2.65178 1.63934 2.86917 1.63934H21.7216C21.939 1.63934 22.1475 1.7257 22.3012 1.87942C22.4549 2.03314 22.5413 2.24163 22.5413 2.45902V17.2131H20.902C20.6846 17.2131 20.4761 17.2995 20.3224 17.4532C20.1686 17.6069 20.0823 17.8154 20.0823 18.0328C20.0823 18.2502 20.1686 18.4587 20.3224 18.6124C20.4761 18.7661 20.6846 18.8525 20.902 18.8525H22.5413V23.7705C22.5413 23.9879 22.4549 24.1964 22.3012 24.3501C22.1475 24.5038 21.939 24.5902 21.7216 24.5902H2.86917C2.65178 24.5902 2.4433 24.5038 2.28958 24.3501C2.13586 24.1964 2.0495 23.9879 2.0495 23.7705V2.45902Z" fill="black"/>
    <path d="M4.50913 18.8525H6.96814C7.18553 18.8525 7.39402 18.7662 7.54774 18.6124C7.70146 18.4587 7.78781 18.2502 7.78781 18.0328C7.78781 17.8155 7.70146 17.607 7.54774 17.4533C7.39402 17.2995 7.18553 17.2132 6.96814 17.2132H4.50913C4.29173 17.2132 4.08325 17.2995 3.92953 17.4533C3.77581 17.607 3.68945 17.8155 3.68945 18.0328C3.68945 18.2502 3.77581 18.4587 3.92953 18.6124C4.08325 18.7662 4.29173 18.8525 4.50913 18.8525ZM10.2468 18.8525H12.0026C12.2021 19.6252 12.6765 20.2986 13.337 20.7465C13.9975 21.1943 14.7986 21.386 15.5903 21.2854C16.3819 21.1848 17.1097 20.799 17.6373 20.2002C18.1648 19.6015 18.4558 18.8309 18.4558 18.0328C18.4558 17.2348 18.1648 16.4642 17.6373 15.8654C17.1097 15.2667 16.3819 14.8808 15.5903 14.7803C14.7986 14.6797 13.9975 14.8714 13.337 15.3192C12.6765 15.7671 12.2021 16.4405 12.0026 17.2132H10.2468C10.0294 17.2132 9.82095 17.2995 9.66723 17.4533C9.51352 17.607 9.42716 17.8155 9.42716 18.0328C9.42716 18.2502 9.51352 18.4587 9.66723 18.6124C9.82095 18.7662 10.0294 18.8525 10.2468 18.8525ZM15.1649 16.3935C15.5996 16.3935 16.0166 16.5662 16.3241 16.8737C16.6315 17.1811 16.8042 17.5981 16.8042 18.0328C16.8042 18.4676 16.6315 18.8846 16.3241 19.192C16.0166 19.4995 15.5996 19.6722 15.1649 19.6722C14.7301 19.6722 14.3131 19.4995 14.0057 19.192C13.6982 18.8846 13.5255 18.4676 13.5255 18.0328C13.5255 17.5981 13.6982 17.1811 14.0057 16.8737C14.3131 16.5662 14.7301 16.3935 15.1649 16.3935Z" fill="black"/>
</svg>
