<svg width="50" height="50" viewBox="0 0 50 50" fill="none" xmlns="http://www.w3.org/2000/svg">
    <g clip-path="url(#clip0_759_373)">
        <path d="M8.67398 44.5833C7.41706 44.4043 6.18465 44.0825 5.00065 43.6241V40C5.00065 39.7789 4.91285 39.567 4.75657 39.4107C4.60029 39.2544 4.38833 39.1666 4.16732 39.1666C3.9463 39.1666 3.73434 39.2544 3.57806 39.4107C3.42178 39.567 3.33398 39.7789 3.33398 40V44.1458C3.33403 44.2938 3.3735 44.4392 3.44834 44.5669C3.52318 44.6946 3.63069 44.8001 3.75982 44.8725C5.27648 45.5616 6.88815 46.0225 8.54065 46.24C8.74998 46.2398 8.95159 46.1609 9.10539 46.0189C9.25918 45.8769 9.3539 45.6822 9.3707 45.4735C9.3875 45.2649 9.32516 45.0575 9.19607 44.8927C9.06698 44.7279 8.8806 44.6169 8.67398 44.5833Z" fill="black"/>
        <path d="M50 18.3392C50 14.8608 48.4 14.6675 48.4 11.6725C48.4 9.50583 49.36 9.0325 49.8808 7.435C50.002 7.05978 50.0327 6.66121 49.9705 6.27185C49.9082 5.88249 49.7547 5.51339 49.5225 5.19467C49.2904 4.87596 48.9861 4.61669 48.6346 4.43803C48.2831 4.25936 47.8943 4.16638 47.5 4.16667H20.8333V2.5C20.8333 0.0700001 14.8483 0 14.1667 0C13.485 0 7.5 0.0700001 7.5 2.5V4.71083C4.79167 5.18917 0 6.42167 0 9.16667V45C0 51.31 25.7917 51.6917 28.1508 45.8333H47.5C47.894 45.8335 48.2825 45.7405 48.6337 45.562C48.985 45.3835 49.2891 45.1245 49.5212 44.8061C49.7533 44.4877 49.9069 44.1189 49.9694 43.7299C50.0319 43.3409 50.0015 42.9426 49.8808 42.5675C49.3608 40.9708 48.4 40.5 48.4 38.3333C48.4 35.3333 50 35.1592 50 31.6667C50 28.19 48.4 27.9958 48.4 25C48.4 22.0042 50 21.8333 50 18.3392ZM19.0242 2.5C17.2358 3.60333 11.1075 3.61167 9.30917 2.5C11.0975 1.39667 17.2217 1.38833 19.0242 2.5ZM9.16667 4.25667C12.428 5.23623 15.9053 5.23623 19.1667 4.25667V8.22333C18.8208 8.565 17.0683 9.16667 14.1667 9.16667C11.265 9.16667 9.5125 8.565 9.16667 8.22333V4.25667ZM26.6667 45C26.6667 46.3592 21.7967 48.3333 14.1667 48.3333C6.53667 48.3333 1.66667 46.3592 1.66667 45V11.6408C6.74417 14.9983 21.5733 15.01 26.6667 11.6408V45ZM14.1667 12.5C6.53667 12.5 1.66667 10.5258 1.66667 9.16667C1.66667 8.48333 3.2725 7.185 7.5 6.4025V8.33333C7.5 10.7633 13.485 10.8333 14.1667 10.8333C14.8483 10.8333 20.8333 10.7633 20.8333 8.33333V6.4025C25.0608 7.185 26.6667 8.48583 26.6667 9.16667C26.6667 10.5258 21.7967 12.5 14.1667 12.5ZM48.3333 31.6717C48.3333 34.6717 46.7333 34.8458 46.7333 38.3383C46.7333 41.6717 48.9383 42.7758 48.1792 43.8208C48.1016 43.9283 47.9996 44.0158 47.8814 44.0759C47.7633 44.1361 47.6326 44.1672 47.5 44.1667H28.3333V9.16667C28.3333 7.62083 26.8083 6.55583 24.995 5.83333H47.5C47.6327 5.833 47.7636 5.86436 47.8817 5.9248C47.9998 5.98524 48.1018 6.07302 48.1792 6.18083C48.9425 7.23583 46.7333 8.305 46.7333 11.6667C46.7333 15.135 48.3333 15.3467 48.3333 18.3333C48.3333 21.32 46.7333 21.5083 46.7333 25C46.7333 28.4817 48.3333 28.6758 48.3333 31.6717Z" fill="black"/>
        <path d="M45.3338 16.4633C45.1527 16.5509 45.0094 16.7011 44.9303 16.8861C44.8513 17.0712 44.8419 17.2785 44.9038 17.47C44.9838 17.7525 45.0171 18.0458 45.0005 18.3392C45.0209 18.876 44.8858 19.4073 44.6113 19.8692C44.5334 20.0654 44.5329 20.2839 44.61 20.4805C44.687 20.6771 44.8358 20.8372 45.0263 20.9283C45.2168 21.0194 45.4347 21.0348 45.6361 20.9714C45.8375 20.908 46.0074 20.7705 46.1113 20.5867C46.503 19.9033 46.693 19.1233 46.663 18.3366C46.6794 17.8611 46.616 17.3862 46.4755 16.9317C46.4364 16.8212 46.3745 16.7202 46.2937 16.6352C46.213 16.5503 46.1152 16.4834 46.0069 16.4388C45.8985 16.3942 45.782 16.373 45.6648 16.3765C45.5477 16.38 45.4326 16.4082 45.3271 16.4591L45.3338 16.4633ZM45.0005 29.03C44.9017 29.0773 44.8133 29.1437 44.7402 29.2252C44.6671 29.3068 44.6108 29.4019 44.5745 29.5052C44.5382 29.6085 44.5226 29.718 44.5286 29.8274C44.5346 29.9367 44.5622 30.0438 44.6096 30.1425C44.8921 30.6008 45.028 31.1342 45.0005 31.6717C45.0209 32.2085 44.8858 32.7398 44.6113 33.2017C44.5334 33.3979 44.5329 33.6164 44.61 33.813C44.687 34.0096 44.8358 34.1697 45.0263 34.2608C45.2168 34.3519 45.4347 34.3673 45.6361 34.3039C45.8375 34.2405 46.0074 34.103 46.1113 33.9191C46.503 33.2358 46.693 32.4558 46.663 31.6691C46.6932 30.8821 46.5015 30.1024 46.1096 29.4192C46.0137 29.2209 45.8432 29.0686 45.6353 28.9957C45.4275 28.9228 45.1992 28.9351 45.0005 29.03Z" fill="black"/>
    </g>
    <defs>
        <clipPath id="clip0_759_373">
            <rect width="50" height="50" fill="white"/>
        </clipPath>
    </defs>
</svg>
